<?xml version="1.0" encoding="UTF-8"?>
<svg width="101px" height="150px" viewBox="0 0 101 150" version="1.1" xmlns="http://www.w3.org/2000/svg" xmlns:xlink="http://www.w3.org/1999/xlink">
    <title>3 Year old</title>
    <g id="2.0" stroke="none" stroke-width="1" fill="none" fill-rule="evenodd">
        <g id="2.0.2-Diagnosis-and-Genetic-Testing---DESKTOP" transform="translate(-885, -1904)" fill="#173462">
            <g id="Group-16" transform="translate(885, 1904)">
                <path d="M31.2295988,24.9281054 C35.6109978,41.423496 58.687616,44.5881418 67.2640243,29.7887929 C75.2337011,17.3642315 65.4056417,-0.347359727 50.306972,0.00518209164 L50.306972,0.00463338842 C44.1483911,0.0544282056 38.3598325,2.93731492 34.6279023,7.81240586 C30.8965236,12.6874968 29.6422532,19.0066374 31.2308395,24.927831 L31.2295988,24.9281054 Z" id="Fill-1"></path>
                <path d="M72.1888496,25.5466797 C71.6794043,27.2331591 70.9789351,28.8604858 70.1010349,30.400684 C71.7074578,31.05206 73.1027566,32.1062315 74.1410244,33.4540788 C78.9796703,39.0165242 84.9429134,33.1670837 86.7759332,28.208553 C88.0880838,24.9834064 89.2437713,20.4006696 85.8270317,18.0051924 L85.8270317,18.0046357 C82.0084332,15.2117912 77.2319678,13.9155807 72.459985,14.3772504 C73.3326794,18.0644843 73.2394089,21.9023141 72.1888496,25.5466797 Z" id="Fill-3"></path>
                <path d="M17.9789994,34.1362524 C19.1511234,35.2492765 20.7628119,35.8185619 22.3998904,35.6985066 C24.0375459,35.5780326 25.5414711,34.779665 26.526488,33.5080562 C27.3474797,32.4501738 28.3776505,31.5607875 29.5559777,30.890572 C29.8788347,30.7123038 30.2130884,30.5546964 30.5568633,30.4194248 C29.6697999,28.8892784 28.9709976,27.2637858 28.4740171,25.5770091 C27.4263907,21.9217447 27.3333421,18.0724375 28.2035269,14.3741765 C23.4440544,13.9210376 18.6822738,15.2200078 14.8682906,18.0124098 C9.80731175,22.2298401 14.1925701,30.3975077 17.9788551,34.1361128 L17.9789994,34.1362524 Z" id="Fill-5"></path>
                <path d="M45.079288,119.305218 C39.6133556,119.138953 34.1634765,118.655747 28.759401,117.857143 L28.759401,140.684827 C28.8007861,144.025427 30.6941935,147.096126 33.73637,148.755543 C36.7779575,150.414819 40.5135194,150.414819 43.5551068,148.755543 C46.5972834,147.096267 48.4901016,144.025427 48.5314868,140.684266 L48.5314868,119.357737 C47.379772,119.358861 46.2043454,119.328107 45.0795825,119.305077 L45.079288,119.305218 Z" id="Fill-7"></path>
                <path d="M68.0582876,118.195344 C62.191906,119.070696 56.2685279,119.566891 50.3289491,119.679209 L50.3289491,140.790404 C50.3703343,144.093141 52.2637416,147.129038 55.3053291,148.769647 C58.3475056,150.410118 62.0830675,150.410118 65.124655,148.769647 C68.1662424,147.129177 70.0596497,144.093141 70.1010349,140.789849 L70.1010349,117.857143 C69.3854106,117.972653 68.8014529,118.09094 68.0575512,118.195483 L68.0582876,118.195344 Z" id="Fill-9"></path>
                <path d="M98.8876732,75.4742789 L73.8468769,49.0771564 C71.1728536,46.2617415 67.4539705,44.6585772 63.5578645,44.6428571 L37.0738068,44.6428571 C33.1760209,44.6482826 29.4527983,46.2524208 26.7847944,49.0771564 L1.74399809,75.5007108 C-3.91565864,81.6761768 5.46078131,91.398804 11.901703,85.9343561 L29.0416578,70.883475 C29.1176705,70.8128045 29.2281199,70.7927719 29.3238707,70.8324197 C29.4200414,70.8715111 29.4840153,70.9627707 29.4879349,71.0661334 C29.4091225,72.27741 29.7639884,74.676592 29.0154803,75.7089664 L12.1387003,102.810151 L12.1387003,102.809595 C11.246286,104.212712 11.0619237,105.947896 11.6399282,107.504735 C12.2053339,109.106787 13.4843911,110.358824 15.1045956,110.89567 C24.9638492,114.037171 35.227664,115.750097 45.5782704,115.982002 C59.0700353,116.527613 72.5452818,114.572904 85.3176558,110.2179 C86.8787859,109.655457 88.1021285,108.424009 88.6466762,106.864944 C89.1917839,105.306436 89.0004223,103.586554 88.1260662,102.183994 L71.616051,75.7089664 C71.3059808,75.216081 71.1419165,74.6465431 71.1435964,74.0657368 L71.1435964,71.0399797 C71.1381369,70.9356432 71.2021108,70.8399319 71.3010813,70.8051531 C71.3896928,70.756741 71.5007021,70.7791386 71.5635561,70.8573214 L88.7553058,85.9346344 C95.1574513,91.3921264 104.617183,81.698157 98.8868333,75.4748354 L98.8876732,75.4742789 Z" id="Fill-11"></path>
            </g>
        </g>
    </g>
</svg>