<?xml version="1.0" encoding="UTF-8"?>
<svg width="100px" height="100px" viewBox="0 0 100 100" version="1.1" xmlns="http://www.w3.org/2000/svg" xmlns:xlink="http://www.w3.org/1999/xlink">
    <title>Group 114</title>
    <g id="2.0" stroke="none" stroke-width="1" fill="none" fill-rule="evenodd">
        <g id="2.0.2-Diagnosis-and-Genetic-Testing---DESKTOP" transform="translate(-528, -4892)">
            <g id="Group-12" transform="translate(465, 4892)">
                <g id="Group-15" transform="translate(63, 0)">
                    <circle id="Oval-Copy-5" stroke="#E2C3DF" stroke-width="2" fill="#FFFFFF" cx="50" cy="50" r="49"></circle>
                    <g id="Group-2" transform="translate(27.4194, 20.9677)" fill="#9E3795" fill-rule="nonzero">
                        <path d="M37.8885274,42.1310184 C37.8885274,39.3710547 39.3550825,37.0356654 41.4499926,35.7619421 C39.7740464,33.9573858 38.7265005,31.5157839 38.7265005,28.8620327 C38.7265005,24.4036793 41.5548017,20.6884001 45.4303763,19.3084182 C43.2306572,16.0176674 39.5644282,13.7884907 34.2222985,13.6822321 C29.7180964,13.5760379 25.9469677,16.3359832 24.1662577,20.2638256 C22.4903115,16.3362592 18.6144191,13.5764335 14.110217,13.6822321 C-8.20153821,14.3192317 -1.0786985,51.0480013 14.9481902,55.4000042 C17.1479093,56.0370038 19.243001,55.2938099 20.9189927,53.8076431 C22.6997026,52.215282 25.4231947,52.215282 27.3087591,53.8076431 C28.9847054,55.2938375 31.0797971,55.9306072 33.2795617,55.4000042 C36.6316358,54.4445967 39.6693281,52.1092534 42.0787108,48.9246692 C39.6694189,47.6508999 37.8886635,45.1033154 37.8886635,42.1310184 L37.8885274,42.1310184 Z" id="Path"></path>
                        <path d="M23.9639036,15.5031729 C24.5308317,14.7840228 25.2110078,14.2702742 26.004776,13.6537224 C26.9117922,10.4686056 28.7258246,6.46150874 32.3540367,3.48204275 C32.8075448,3.07107501 32.8075448,2.55730412 32.4674617,2.14635865 C32.1273785,1.73539091 31.4470009,1.73539091 30.9935174,2.0435733 C26.2315964,5.94782245 24.4172692,11.2905143 23.6237957,14.8866211 C23.6236039,15.1949772 23.8504541,15.2977625 23.963879,15.5031729 L23.9639036,15.5031729 Z" id="Path" fill-opacity="0.45"></path>
                        <path d="M23.2777518,10.0229538 C23.8186134,8.54621615 24.5756978,7.06952423 25.4410108,5.59296943 C22.8450718,0.951911578 17.4365962,-1.15745242 11.8118978,0.635621246 C12.8934336,6.5422975 17.6526784,10.2340273 23.2773768,10.0228624 L23.2777518,10.0229538 Z" id="Path"></path>
                    </g>
                </g>
            </g>
        </g>
    </g>
</svg>