<?xml version="1.0" encoding="UTF-8"?>
<svg width="100px" height="100px" viewBox="0 0 100 100" version="1.1" xmlns="http://www.w3.org/2000/svg" xmlns:xlink="http://www.w3.org/1999/xlink">
    <title>Group 115</title>
    <g id="2.0" stroke="none" stroke-width="1" fill="none" fill-rule="evenodd">
        <g id="2.0.2-Diagnosis-and-Genetic-Testing---DESKTOP" transform="translate(-243, -4892)">
            <g id="Group-19" transform="translate(180, 4892)">
                <g id="Group-115" transform="translate(63, 0)">
                    <g id="Group-13" fill="#FFFFFF" stroke="#E2C3DF" stroke-width="2">
                        <circle id="Oval-Copy-4" cx="50" cy="50" r="49"></circle>
                    </g>
                    <g id="noun-brainstorm-5119706-copy" transform="translate(21.7742, 24.1935)" fill="#9E3795" fill-rule="nonzero">
                        <path d="M45.9645942,31.6486429 C45.9645942,31.6033734 45.9624573,31.5602134 45.9603205,31.5149429 C45.7530418,26.9377551 41.9144577,23.275013 37.2290548,23.275013 C37.1220188,23.275013 37.0215822,23.2491176 36.9320266,23.203849 L34.259584,27.6279745 C34.3796395,27.6172326 34.4996901,27.612821 34.621884,27.612821 L34.7005584,27.612821 C36.582776,27.6429365 38.3163478,28.6649589 39.2377134,30.2797003 C39.414492,30.5900628 39.3033732,30.9846121 38.9888646,31.1614907 C38.8862945,31.2175006 38.7771201,31.2433989 38.6679457,31.2433989 C38.4387158,31.2433989 38.2160951,31.124853 38.0958407,30.9157709 C37.4015466,29.6998165 36.0957109,28.9300361 34.6898663,28.9064654 L34.622068,28.9064654 C34.1898363,28.9064654 33.7661484,28.9732197 33.3644216,29.1069147 L31.3446979,32.4509121 L39.3513834,32.4509121 C39.5959603,32.4509121 39.8230518,32.5867187 39.9343796,32.802322 C40.0458863,33.0179253 40.0260735,33.2787991 39.8821223,33.4750204 L33.8950112,41.6525862 C34.9648238,41.2580124 36.0260826,40.9173272 37.0084184,40.6025599 L37.1263355,40.5638126 C37.1896629,40.5444389 37.2553277,40.533505 37.3205946,40.533505 C42.0914851,40.4861259 45.9693069,36.6161991 45.9693069,31.9051493 C45.9693069,31.823241 45.96717,31.7413377 45.96717,31.6594295 C45.9650331,31.6552094 45.9650331,31.6529077 45.9650331,31.6486876 L45.9645942,31.6486429 Z" id="Path" fill-opacity="0.45"></path>
                        <path d="M30.191921,33.7444725 C29.9560868,33.7444725 29.7377381,33.6172987 29.6219544,33.4168445 C29.5063697,33.2142836 29.5085081,32.9641492 29.6285592,32.7658016 L32.3272598,28.3008203 L32.3754367,28.2168054 L38.1964463,18.5842389 L23.8928258,18.5842389 L21.3404337,28.2256444 L21.3229503,28.2923986 L18.2114827,40.048785 L24.7113199,40.2018572 C24.9100498,40.206269 25.0955712,40.3010261 25.2156416,40.4562098 C25.3378306,40.6135001 25.3794057,40.8141459 25.3312264,41.0059477 L24.6369323,43.7569941 L24.6215859,43.8216368 L21.4382073,56.4516129 L31.4599915,42.7697935 L31.5013692,42.7137836 L38.0688406,33.7451256 L30.191921,33.7444725 Z" id="Path"></path>
                        <path d="M53.721133,11.8782126 C53.3848671,14.3144918 51.9022726,16.4920332 49.7078938,17.7119652 C49.6053237,17.7679751 49.4961493,17.7938734 49.3869749,17.7938734 C49.157745,17.7938734 48.9351243,17.6753274 48.8148698,17.4639423 C48.6380912,17.1535798 48.749404,16.7590305 49.065857,16.5842635 C51.1357096,15.4350928 52.4458222,13.2661939 52.4850599,10.9268002 L52.4850599,10.8124774 C52.4850599,7.57862403 50.0765892,4.84270211 46.9415491,4.29910244 C47.1729125,5.04506654 47.2908296,5.81906997 47.2908296,6.61242104 C47.2908296,6.97035711 46.9982722,7.25924081 46.6357733,7.25924081 C46.2732793,7.25924081 45.980717,6.97036202 45.980717,6.61242104 C45.980717,5.64219138 45.7711109,4.70442057 45.3584832,3.82680419 C44.2667393,1.50273145 41.8825373,0 39.2863322,0 C37.8365751,0 36.4588781,0.448472184 35.3016385,1.29786263 C35.2928968,1.30438435 35.2841551,1.31090607 35.2732765,1.31512621 C35.2645348,1.32164794 35.2557931,1.32816966 35.2449144,1.3323898 C35.2295679,1.34313166 35.2144154,1.35176346 35.1990684,1.35828518 C35.1749797,1.36902704 35.1532224,1.37996091 35.1291367,1.3885927 C35.1095164,1.39511443 35.089896,1.40144464 35.0702752,1.40355471 C35.0483234,1.4121865 35.0265661,1.41659815 35.0024769,1.41659815 C34.9741149,1.42311988 34.9457538,1.42522995 34.9152538,1.42522995 L34.9043752,1.4254218 C34.8738761,1.4254218 34.8455136,1.42331178 34.8148196,1.41679001 C34.7887885,1.41468004 34.7647008,1.41026829 34.7406111,1.40163649 C34.7254586,1.39952652 34.7099176,1.39530628 34.696902,1.39089463 C34.6642661,1.38015277 34.6314362,1.36499925 34.6009362,1.34773517 C34.5791789,1.33699331 34.5574216,1.32414138 34.5376088,1.30898786 C34.531198,1.30687784 34.5267301,1.30246614 34.5201254,1.298246 C33.3628858,0.448865373 31.9830504,0 30.5332933,0 C28.7602849,0 27.081268,0.685947506 25.8323742,1.90420986 C27.5267083,3.39618717 28.4854218,5.5025254 28.4854218,7.77724695 C28.4854218,9.62484746 27.8260887,11.4229495 26.6316006,12.8395496 C26.5028073,12.9926217 26.317286,13.0724184 26.1294173,13.0724184 C25.9810002,13.0724184 25.8323892,13.0229298 25.7102002,12.9214578 C25.4329898,12.6930036 25.3935532,12.2853922 25.6249215,12.0116772 C26.6249615,10.8279853 27.1751352,9.32314228 27.1751352,7.77729606 C27.1751352,5.6751318 26.1946892,3.74773459 24.4894641,2.48861633 C23.3301358,1.62411117 21.9436862,1.16698656 20.4807007,1.16698656 C17.7231683,1.16698656 15.284312,2.79896411 14.2623407,5.32157104 C14.2600095,5.32598289 14.2600095,5.33020283 14.2580669,5.33442297 C14.2471883,5.36242842 14.2318418,5.38832626 14.2166893,5.41421967 C14.2166893,5.41632969 14.2143581,5.4207414 14.2124155,5.42285147 C14.197263,5.44874685 14.1797796,5.47234015 14.1599643,5.49401539 C14.1448117,5.51549912 14.1273283,5.5327627 14.107707,5.55002531 C14.0575881,5.59970551 13.9985326,5.64056633 13.9330667,5.66857128 C13.9047047,5.6837248 13.8742052,5.69446666 13.8437051,5.70309846 C13.8130117,5.71384032 13.7803777,5.72036204 13.7498777,5.72458218 C13.7193787,5.72880223 13.6865503,5.73110391 13.6560503,5.73110391 C13.6123413,5.73110391 13.5686332,5.72688391 13.5251186,5.71806046 C13.5227874,5.71806046 13.5206506,5.71806046 13.5185139,5.71595044 C13.0928864,5.6340422 12.6495647,5.59088323 12.2041244,5.59088323 C8.50985962,5.59088323 5.50536331,8.55755265 5.50536331,12.2034516 C5.50536331,12.4211664 5.51857284,12.6346582 5.53799925,12.8458518 C5.54441007,12.893231 5.54674096,12.940611 5.54227298,12.9881797 C5.54013614,13.0054433 5.53799925,13.0248169 5.53566821,13.042083 C5.5269265,13.0938747 5.51177398,13.1456665 5.48982223,13.1930436 C5.48341141,13.2103072 5.4746697,13.2252692 5.46592799,13.2404227 C5.43329205,13.3029539 5.38958101,13.3589687 5.33713474,13.4086489 C5.31090961,13.4322427 5.28254505,13.4539184 5.25398953,13.4732916 C5.19298953,13.514341 5.12519628,13.5444555 5.05098773,13.5617211 C5.04010908,13.5638311 5.02903599,13.5682428 5.01835178,13.5703528 C2.06129881,14.322848 0,16.950983 0,19.9712758 C0,21.7908861 0.733531749,23.4855716 2.06557567,24.7444934 C2.07431738,24.7531252 2.08305909,24.761757 2.08946991,24.7703888 C2.13764679,24.8177679 2.17455462,24.8716692 2.20097668,24.9320937 C2.20971839,24.9472472 2.21612921,24.9643193 2.22273398,24.9815824 C2.23380708,25.0053682 2.2402174,25.0289615 2.24468573,25.0527463 C2.25342744,25.0786417 2.25983826,25.1066496 2.26216915,25.1346546 C2.26450029,25.1605499 2.26663718,25.1864463 2.26663718,25.2123397 C2.26663718,25.2424552 2.26450029,25.2704612 2.26003241,25.3007692 C2.26236359,25.3028792 2.26003241,25.3049892 2.26003241,25.309401 C2.25575868,25.3287747 2.2512907,25.3502584 2.24487988,25.3698255 C2.24041185,25.397831 2.23167034,25.4258354 2.21865475,25.4538404 C2.21224393,25.471104 2.20544521,25.4883676 2.19476051,25.5056321 C2.1860188,25.5273079 2.17280877,25.5487916 2.15979368,25.5681633 C1.44142987,26.6440683 1.06163448,27.8987671 1.06163448,29.1989377 C1.06163448,32.8446402 4.06374371,35.811506 7.75591982,35.811506 L7.78855577,35.811506 C7.80603919,35.811506 7.82352261,35.811506 7.84081307,35.813616 C7.84741784,35.813616 7.85188617,35.813616 7.85829649,35.815726 C7.88024823,35.817836 7.89967414,35.8199461 7.91949044,35.8243578 C7.93464297,35.8264678 7.94998945,35.8308795 7.96533642,35.8350997 C7.98048895,35.8393197 7.99602988,35.8437315 8.00885102,35.8479516 C8.0241975,35.8523634 8.03721309,35.8586935 8.05256006,35.8652152 C8.07004348,35.8717369 8.08519601,35.8803687 8.10267893,35.889001 C8.12229929,35.8997428 8.14211409,35.9104847 8.1615405,35.9235282 C8.17669303,35.93427 8.19223396,35.9452039 8.20738599,35.9580553 C8.22486941,35.9710988 8.24002193,35.9860608 8.25323197,36.0012148 C8.28392543,36.0313303 8.31209354,36.0637459 8.33404479,36.098277 C8.34492344,36.111129 8.35366515,36.1262825 8.36026992,36.1414365 C8.37328551,36.1631122 8.38416416,36.184596 8.39290586,36.2060792 C8.40164757,36.2254528 8.41038928,36.2448265 8.41485761,36.2665037 C8.42359932,36.2858774 8.4278732,36.305251 8.43234103,36.3267367 C8.44088879,36.3677861 8.44535662,36.4109431 8.44535662,36.4560221 C8.44535662,36.4732857 8.44535662,36.4905493 8.44321973,36.5078138 C8.44321973,36.5143356 8.44321973,36.5185557 8.44088859,36.5250774 C8.42126823,36.8032168 8.41038958,37.0468251 8.41038958,37.2752646 C8.41038958,42.0356165 12.3317757,45.9055846 17.1550827,45.9055846 C18.9651904,45.9055846 20.6988118,45.3644402 22.1704506,44.3424532 C22.1768614,44.3380414 22.1834662,44.3338214 22.187934,44.3294097 C22.2118282,44.307734 22.2380529,44.2906624 22.2664144,44.2733998 C22.6636803,43.9931538 23.0436597,43.6697439 23.3973961,43.3139243 L23.8603217,41.4749664 L17.3515329,41.3218942 C17.1506646,41.3176742 16.9651482,41.2227253 16.8427851,41.0654301 C16.7227296,40.9079482 16.6834919,40.7032758 16.7336107,40.5112727 L19.9694058,28.2805256 C18.4125779,26.7843252 16.0544349,26.3897612 14.0787728,27.2951714 C14.0525477,27.3059133 14.0263216,27.3168472 14.0002924,27.3231769 C13.0394901,29.7356889 10.6574266,31.4474632 7.87592393,31.4474632 C7.30829468,31.4474632 6.74708073,31.3762992 6.20779813,31.2362695 C5.85851767,31.1457285 5.64892154,30.792207 5.74060057,30.4471416 C5.83442799,30.1022529 6.19245116,29.8952921 6.54191563,29.9858184 C6.97200891,30.0978383 7.42170615,30.1540446 7.87589906,30.1540446 C10.7820773,30.1540446 13.1468842,27.8190213 13.1468842,24.9498266 C13.1468842,22.7722852 11.7559588,20.8082551 9.68396779,20.0599831 C9.34556349,19.9372189 9.17094315,19.5641141 9.29311224,19.2299992 C9.41763361,18.8937383 9.79529553,18.7211172 10.133665,18.8440581 C12.7188796,19.777655 14.4569768,22.2333309 14.4569768,24.9498561 C14.4569768,25.2366233 14.4373565,25.5189907 14.3981153,25.7950136 C16.4308685,25.1913577 18.6578709,25.5987825 20.3389765,26.8858959 L22.751724,17.7723762 C22.828071,17.4877156 23.0879899,17.2893778 23.3871366,17.2893778 L28.9679456,17.2893778 C29.2037798,16.4054759 29.6709922,15.6055938 30.3368899,14.9480199 L30.3957514,14.89201 C31.4241878,13.9066558 32.808499,13.3892785 34.2079284,13.4217374 C33.2407108,11.4532878 33.5856945,9.00856247 35.2385032,7.37633939 C35.5638929,7.05504105 35.9285203,6.77690659 36.319356,6.55057859 C36.6336706,6.37161301 37.033244,6.47519158 37.2166518,6.78344746 C37.3978963,7.09169843 37.2929988,7.48835923 36.9810116,7.66734936 C36.6863158,7.83979372 36.411045,8.0488758 36.1643297,8.29266086 C34.5879078,9.84926121 34.5879078,12.3824259 36.1643297,13.9388298 C37.360807,15.1202629 39.1948353,15.4394497 40.729881,14.7366004 C41.0595426,14.5856397 41.4482448,14.7279686 41.6009686,15.0513775 C41.7515192,15.3747825 41.6097103,15.7607088 41.2821832,15.9094007 C40.5638194,16.2393318 39.7974652,16.3987288 39.0331997,16.3987288 C37.6531654,16.3987288 36.2865584,15.8727581 35.2668747,14.8787613 C35.2319079,14.8766512 35.1948046,14.8701295 35.1577003,14.8593876 C33.7951713,14.4820793 32.323632,14.8486457 31.3105625,15.8144436 L31.2668535,15.8597131 C30.8499687,16.2715476 30.5375986,16.7566771 30.3388736,17.2891298 L39.3501247,17.2891298 C39.5859589,17.2891298 39.8021692,17.414197 39.9200913,17.6167579 C40.035676,17.8193187 40.0335376,18.0673416 39.9113496,18.2678008 L37.6623661,21.9911884 C42.7105565,22.2025736 46.8044096,26.1091401 47.2390582,31.0354691 C47.9399665,31.1820201 48.6604687,31.2575937 49.3875852,31.2575937 C55.0618884,31.2579773 59.6774194,26.6980348 59.6774194,21.094686 C59.6774194,17.1342162 57.317138,13.5294678 53.7211416,11.8780444 L53.721133,11.8782126 Z M24.0307516,14.7261445 C23.2601206,16.802381 21.2382584,18.1973255 19.0004644,18.1973255 C16.048484,18.1973255 13.6469259,15.8256694 13.6469259,12.9111011 C13.6469259,12.4561077 13.7057875,12.0055436 13.8215662,11.5721861 C13.9132601,11.2249944 14.2712833,11.0203367 14.6207428,11.110863 C14.9700233,11.201404 15.1796194,11.5549255 15.0879404,11.899991 C15.0007172,12.227619 14.9570087,12.5682699 14.9570087,12.9110765 C14.9570087,15.1123851 16.7713932,16.9039561 19.000733,16.9039561 C20.6929286,16.9039561 22.2190724,15.8497066 22.7999301,14.2802406 C22.9242575,13.9460913 23.3021134,13.7736666 23.6404829,13.8964111 C23.9808317,14.0191753 24.1554471,14.3899721 24.0309506,14.7261986 L24.0307516,14.7261445 Z" id="Shape" fill-opacity="0.45"></path>
                    </g>
                </g>
            </g>
        </g>
    </g>
</svg>