<?xml version="1.0" encoding="UTF-8"?>
<svg width="103px" height="88px" viewBox="0 0 103 88" version="1.1" xmlns="http://www.w3.org/2000/svg" xmlns:xlink="http://www.w3.org/1999/xlink">
    <title>Crawling baby</title>
    <g id="2.0" stroke="none" stroke-width="1" fill="none" fill-rule="evenodd">
        <g id="2.0.2-Diagnosis-and-Genetic-Testing---DESKTOP" transform="translate(-422, -1966)" fill="#173462">
            <g id="Group-6" transform="translate(422, 1966)">
                <path d="M36.6876951,64.9909439 C29.8821525,62.4788393 22.4207146,62.3400032 15.5262815,64.5971398 L22.1387526,74.3808275 C22.3954966,74.7604415 22.4204863,75.2503978 22.2037944,75.6544188 C21.9872165,76.0584398 21.5642165,76.3106833 21.1042453,76.3102292 L5.96091176,76.3102292 C4.38838309,76.2871845 2.87153936,76.8929321 1.75133662,77.9917012 C0.630677449,79.0901297 0,80.5899682 0,82.1547407 C0,83.7196267 0.630677449,85.2193517 1.75133662,86.3177802 C2.87142525,87.4166628 4.38826898,88.0224105 5.96091176,87.9993657 L39.1607677,87.9993657 C41.1532155,88 43.0708082,87.2463814 44.5238653,85.890828 C45.9769224,84.5352746 46.8563563,82.6798885 46.9839295,80.7021269 C47.1113887,78.7243653 46.4770597,76.772827 45.2094289,75.2438136 L36.6876951,64.9909439 Z" id="Fill-1"></path>
                <path d="M71.8347922,53.9735905 C71.6917123,53.8076574 71.5954733,53.6087204 71.5546763,53.3955083 L66.8759265,29.0765396 L66.8754616,29.0765396 C66.4963171,27.1208583 65.3390083,25.3944913 63.6595912,24.2801241 C61.980639,23.1657569 59.9180094,22.7562344 57.9302323,23.1412038 L30,28.5282637 L45.8038855,57.7658422 L54.9892474,52.6303658 C55.3160881,52.4478736 55.7083666,52.4171537 56.060778,52.5468853 C56.4126083,52.6767311 56.6881912,52.9528676 56.8125581,53.3017498 L60.673625,64.1405068 L79.2461253,84.601787 C80.6340358,86.1256767 82.6163501,86.9977107 84.6980415,87 C86.5122862,87.0021645 88.2612093,86.3352344 89.5987919,85.1313341 C91.007624,83.8826672 91.8638954,82.1429388 91.985124,80.282729 C92.1063526,78.4225192 91.4830075,76.5894891 90.2480565,75.1745465 L71.8347922,53.9735905 Z" id="Fill-4"></path>
                <path d="M26.9356501,29 L20.3789819,30.2756558 L20.3785208,30.275199 C14.9318257,31.332308 10.3816163,35.0213419 8.2586156,40.1012425 C6.1364218,45.181029 6.7240885,50.9762879 9.82380556,55.5365404 L14.1231788,61.8755402 C21.731722,59.2243183 30.0321395,59.2685072 37.611403,62 L43,58.9656931 L26.9356501,29 Z" id="Fill-6"></path>
                <path d="M103,18.0099872 C103.002637,13.2356837 101.108758,8.6560529 97.7344402,5.27820503 C94.360122,1.90058673 89.7827891,0.00172383554 85.0075745,0 C80.2333929,-0.00229358581 75.6543383,1.89255189 72.2772654,5.26707104 C68.8997334,8.6414754 67.0018372,13.2198436 67,17.9942619 C66.9986234,22.7685654 68.8938796,27.347737 72.2686569,30.7248962 C75.6434341,34.1015962 80.2216853,35.9990817 84.9955226,36 C89.7669494,35.9959826 94.3416424,34.0997597 97.7166492,30.7270771 C101.091427,27.3543945 102.991159,22.7814211 102.999194,18.0102168 L103,18.0099872 Z" id="Fill-8"></path>
            </g>
        </g>
    </g>
</svg>