<?xml version="1.0" encoding="UTF-8"?>
<svg width="118px" height="89px" viewBox="0 0 118 89" version="1.1" xmlns="http://www.w3.org/2000/svg" xmlns:xlink="http://www.w3.org/1999/xlink">
    <title>Fill 1</title>
    <g id="2.0" stroke="none" stroke-width="1" fill="none" fill-rule="evenodd">
        <g id="2.0.2-Diagnosis-and-Genetic-Testing---DESKTOP" transform="translate(-655, -2037)" fill="#D3A5CF">
            <path d="M711.507725,2040.4232 L711.507725,2057.53852 L658.416227,2057.53852 C657.510153,2057.53852 656.641247,2057.89945 656.000636,2058.54116 C655.360025,2059.18305 655,2060.0537 655,2060.96159 L655,2102.03836 C655,2102.94625 655.360025,2103.81689 656.000636,2104.45879 C656.641247,2105.10068 657.510153,2105.46142 658.416227,2105.46142 L711.507725,2105.46142 L711.507725,2122.57674 C711.507725,2123.42895 711.824387,2124.24976 712.396673,2124.88015 C712.968959,2125.51054 713.754601,2125.90433 714.601643,2125.98484 C715.447774,2126.0648 716.293359,2125.82656 716.973871,2125.3152 L771.633509,2084.23842 C772.494034,2083.5916 773,2082.57746 773,2081.49997 C773,2080.42248 772.494034,2079.40834 771.633509,2078.76152 L716.973871,2037.68475 C716.293541,2037.17339 715.447956,2036.93533 714.601643,2037.01511 C713.754783,2037.0958 712.968959,2037.48941 712.396673,2038.1198 C711.824387,2038.75019 711.507725,2039.571 711.507725,2040.4232 Z" id="Fill-1"></path>
        </g>
    </g>
</svg>