<?xml version="1.0" encoding="UTF-8"?>
<svg width="100px" height="100px" viewBox="0 0 100 100" version="1.1" xmlns="http://www.w3.org/2000/svg" xmlns:xlink="http://www.w3.org/1999/xlink">
    <title>Group 10</title>
    <g id="2.0" stroke="none" stroke-width="1" fill="none" fill-rule="evenodd">
        <g id="2.0.1-Diagnosis-and-Genetic-Testing---MOBILE" transform="translate(-143, -4985)">
            <g id="Group-10" transform="translate(143, 4985)">
                <rect id="Rectangle" stroke="#E2C3DF" stroke-width="2" fill="#FFFFFF" x="1" y="1" width="98" height="98" rx="49"></rect>
                <g id="Group-24" transform="translate(16, 16)">
                    <g id="noun-dna-strand-6248930" fill="#9E3795" fill-rule="nonzero">
                        <path d="M61.4511165,18.3925525 C61.0884305,18.6192243 60.7143803,18.8005617 60.3177227,18.9705655 C60.2950548,18.9365647 60.2837209,18.902564 60.261053,18.8798968 L49.1199425,7.73913084 C49.1199425,7.73913084 49.0632728,7.70513007 49.029271,7.6824629 C49.1879461,7.28578731 49.3806231,6.91177891 49.5959679,6.54910409 C50.6500544,4.83776251 50.3893436,2.63898598 48.9612674,1.21101433 C48.0545523,0.304327279 46.7851512,-0.126349068 45.4817784,0.0323211651 C44.0650059,0.202324986 42.8183331,1.01831311 42.058929,2.26506824 C39.0781334,7.14981448 39.1801086,12.5336013 39.837477,16.9648831 C34.3291829,16.2281696 27.6645248,16.4548716 22.0543763,22.0536944 C16.4554107,27.6637902 16.2400356,34.3278191 16.9654077,39.8362452 C12.533868,39.1788971 7.14991468,39.076925 2.26513828,42.0576284 C1.01840504,42.8169486 0.202361467,44.0637038 0.0323221646,45.480372 C-0.126352975,46.7837045 0.30433669,48.0530663 1.21105177,48.9597534 C2.63912803,50.3877855 4.83791211,50.6484882 6.54930661,49.6057981 C6.91199264,49.3791263 7.28604284,49.1977889 7.68270046,49.0277851 C7.70536834,49.0617859 7.71670228,49.0957866 7.73937016,49.1184538 L18.8804806,60.2592198 C18.8804806,60.2592198 18.9371503,60.2932206 18.9711521,60.3158877 C18.812477,60.7125633 18.6198,61.0865717 18.4044552,61.4492465 C17.3503687,63.1605881 17.6110795,65.3593646 19.0391558,66.7873363 C19.8325315,67.5693841 20.8865575,68 21.997344,68 C22.167353,68 22.3486961,67.9886664 22.5187051,67.9659992 C23.9354777,67.7959954 25.1821505,66.9800073 25.9415546,65.7332522 C28.9223502,60.8485059 28.820375,55.4647191 28.1630065,51.0334373 C29.511715,51.2147747 30.9171234,51.3394442 32.3678675,51.3394442 C36.8674713,51.3394442 41.7070329,50.1721148 45.9456237,45.9446563 C51.5445893,40.3345604 51.7599644,33.6705315 51.0345923,28.1621054 C55.466132,28.8194536 60.8500853,28.9214256 65.7348617,25.9407222 C66.981595,25.181402 67.7976385,23.9346469 67.9676778,22.5179786 C68.126353,21.2146462 67.6956633,19.9452843 66.7889482,19.0385973 C65.3612951,17.6105652 63.162511,17.3498624 61.4511165,18.3925525 Z M48.3945402,10.2207635 L57.7790413,19.6049744 C55.4895857,19.8769806 52.7241047,19.5143057 49.2105838,18.7889561 C48.4852117,15.2755438 48.1225257,12.4989658 48.3945402,10.2207635 Z M25.6021409,33.567955 L34.4311279,42.396669 C32.2323438,42.6573415 29.6028701,42.340001 26.3160279,41.6826831 C25.6586595,38.3959426 25.3413092,35.7665501 25.60202,33.5678341 L25.6021409,33.567955 Z M26.2482056,31.006564 C26.6788953,29.9752378 27.3022921,29.0458231 28.1749752,28.173167 C29.0476582,27.300511 29.9770412,26.6771334 31.0084598,26.2464571 L41.7530336,36.9906986 C41.3223439,38.0220248 40.698947,38.9514395 39.826264,39.8240956 C38.953581,40.6967516 38.024198,41.3201292 36.9927794,41.7508055 L26.2482056,31.006564 Z M33.5696277,25.6004123 C35.7684118,25.3397398 38.3978855,25.6570802 41.6847277,26.3143981 C42.3420961,29.6011387 42.6594464,32.2305311 42.3987356,34.4292472 L33.5696277,25.6004123 Z M43.9853661,3.44339873 C44.3820539,2.79735398 45.0394526,2.36673808 45.7534605,2.27606938 C46.3654932,2.20806785 46.9321901,2.40073884 47.3515761,2.8200816 C48.0316124,3.48873308 48.1562555,4.56545417 47.6689263,5.37016915 C45.6061495,8.74757839 45.7081248,12.6351502 46.7961829,18.2789749 C45.300103,17.9503008 43.7473232,17.6216267 42.1833001,17.3383173 C41.4692922,12.9522489 41.2312493,7.96559104 43.9853661,3.44303605 L43.9853661,3.44339873 Z M19.6062154,57.7769222 L10.2217143,48.3927113 C12.4998661,48.1207052 15.2766509,48.48338 18.7901718,49.2087296 C19.5155439,52.7221419 19.8782299,55.4987199 19.6062154,57.7769222 Z M44.3365671,44.3349845 C38.9529765,49.7071053 32.549271,49.4917369 26.9844583,48.5624431 C25.2049997,48.2791034 23.4142978,47.8824278 21.6915392,47.4970858 L21.2381816,47.4064171 C20.807492,47.3044148 20.3881665,47.2137461 19.9914484,47.134411 C13.3724283,45.7290461 9.08789728,45.4003418 5.37036543,47.6670896 C4.56568602,48.1544339 3.48893163,48.0297645 2.82019903,47.3497492 C2.40084331,46.9304064 2.20816635,46.3637572 2.27616998,45.751683 C2.36684149,45.0376972 2.79753116,44.3802887 3.44353543,43.9836433 C8.20378962,41.0936086 13.4851028,41.5016177 18.0416483,42.2949084 L18.0529822,42.2949084 C18.0529822,42.2949084 18.098318,42.2949084 18.1209859,42.3175756 C19.7417088,42.5895817 21.3511886,42.9408927 22.9605474,43.3035676 L23.6179158,43.4395706 C24.139277,43.5529065 24.6379703,43.6662424 25.1253599,43.7569111 C31.4608804,45.0716073 37.0601483,45.7969569 41.4347463,41.4334953 C45.4129285,37.4554361 45.1522782,32.4572935 44.086888,26.8128645 L44.5969152,26.9148667 C45.9230162,27.20954 47.2943926,27.5042133 48.6884972,27.7648556 C49.4931767,33.1369764 49.4592051,39.2005971 44.3362648,44.3342592 L44.3365671,44.3349845 Z" id="Shape"></path>
                    </g>
                    <path d="M44.3365671,44.3349845 C38.9529765,49.7071053 32.549271,49.4917369 26.9844583,48.5624431 C25.2049997,48.2791034 23.4142978,47.8824278 21.6915392,47.4970858 L21.2381816,47.4064171 C20.807492,47.3044148 20.3881665,47.2137461 19.9914484,47.134411 C13.3724283,45.7290461 9.08789728,45.4003418 5.37036543,47.6670896 C4.56568602,48.1544339 3.48893163,48.0297645 2.82019903,47.3497492 C2.40084331,46.9304064 2.20816635,46.3637572 2.27616998,45.751683 C2.36684149,45.0376972 2.79753116,44.3802887 3.44353543,43.9836433 C8.20378962,41.0936086 13.4851028,41.5016177 18.0416483,42.2949084 L18.0529822,42.2949084 C18.0529822,42.2949084 18.098318,42.2949084 18.1209859,42.3175756 C19.7417088,42.5895817 21.3511886,42.9408927 22.9605474,43.3035676 L23.6179158,43.4395706 C24.139277,43.5529065 24.6379703,43.6662424 25.1253599,43.7569111 C31.4608804,45.0716073 37.0601483,45.7969569 41.4347463,41.4334953 C45.4129285,37.4554361 45.1522782,32.4572935 44.086888,26.8128645 L44.5969152,26.9148667 C45.9230162,27.20954 47.2943926,27.5042133 48.6884972,27.7648556 C49.4931767,33.1369764 49.4592051,39.2005971 44.3362648,44.3342592 L44.3365671,44.3349845 Z" id="Path" fill="#D4A5D0"></path>
                    <path d="M43.9853661,3.44339873 C44.3820539,2.79735398 45.0394526,2.36673808 45.7534605,2.27606938 C46.3654932,2.20806785 46.9321901,2.40073884 47.3515761,2.8200816 C48.0316124,3.48873308 48.1562555,4.56545417 47.6689263,5.37016915 C45.6061495,8.74757839 45.7081248,12.6351502 46.7961829,18.2789749 C45.300103,17.9503008 43.7473232,17.6216267 42.1833001,17.3383173 C41.4692922,12.9522489 41.2312493,7.96559104 43.9853661,3.44303605 L43.9853661,3.44339873 Z" id="Path" fill="#D4A5D0"></path>
                </g>
            </g>
        </g>
    </g>
</svg>