<?xml version="1.0" encoding="UTF-8"?>
<svg width="100px" height="100px" viewBox="0 0 100 100" version="1.1" xmlns="http://www.w3.org/2000/svg" xmlns:xlink="http://www.w3.org/1999/xlink">
    <title>Group 113</title>
    <g id="2.0" stroke="none" stroke-width="1" fill="none" fill-rule="evenodd">
        <g id="2.0.2-Diagnosis-and-Genetic-Testing---DESKTOP" transform="translate(-813, -4892)">
            <g id="Group-16" transform="translate(750, 4892)">
                <g id="Group-17" transform="translate(63, 0)">
                    <circle id="Oval-Copy-7" stroke="#E2C3DF" stroke-width="2" fill="#FFFFFF" cx="50" cy="50" r="49"></circle>
                    <g id="noun-5529182" transform="translate(24.1935, 22.5806)" fill="#9E3795" fill-rule="nonzero">
                        <path d="M39.4460411,11.5869655 L39.4460411,15.1715543 L11.1258065,15.1715543 L11.1258065,11.5869655 C11.1258065,10.7212879 11.6747639,9.95787773 12.4919206,9.67405728 C14.3563361,9.02673763 17.6415395,7.71046483 19.1921285,6.02754612 C20.1772119,4.95817631 20.7154087,3.0228479 20.9897891,1.63324591 C21.1772365,0.682382796 22.0040918,0 22.972936,0 L27.5979562,0 C28.5668005,0 29.3936502,0.682438987 29.5817774,1.63302115 C29.8561466,3.02200503 30.3943546,4.95727726 31.379438,6.02732136 C32.9304204,7.71108293 36.2153429,9.02651287 38.0796459,9.67383252 C38.8968308,9.95786087 39.4460411,10.7212879 39.4460411,11.5869655 L39.4460411,11.5869655 Z" id="Path"></path>
                        <path d="M51.5832845,26.0276442 L51.5832845,41.6712023 C51.5832845,44.9061055 48.9134637,47.5375367 45.631367,47.5375367 L44.6393808,47.5375367 C43.5436218,47.5375367 42.6554083,46.6627467 42.6554083,45.5820919 C42.6554083,44.5014371 43.5436218,43.6266471 44.6393808,43.6266471 L45.631367,43.6266471 C46.7251972,43.6266471 47.6153395,42.7499017 47.6153395,41.6712023 L47.6153395,26.0276442 C47.6153395,24.9489448 46.7251972,24.0721994 45.631367,24.0721994 L43.6473945,24.0721994 L43.6473945,25.0499218 C43.6473945,25.589706 43.2030674,26.0276442 42.6554083,26.0276442 L8.92787616,26.0276442 C8.38021709,26.0276442 7.93588992,25.589706 7.93588992,25.0499218 L7.93588992,24.0721994 L5.95191744,24.0721994 C4.85808728,24.0721994 3.96794496,24.9489448 3.96794496,26.0276442 L3.96794496,41.6712023 C3.96794496,42.7499017 4.85808728,43.6266471 5.95191744,43.6266471 L6.94390368,43.6266471 C8.0396627,43.6266471 8.92787616,44.5014371 8.92787616,45.5820919 C8.92787616,46.6627467 8.0396627,47.5375367 6.94390368,47.5375367 L5.95191744,47.5375367 C2.66982074,47.5375367 0,44.9061055 0,41.6712023 L0,26.0276442 C0,22.792741 2.66982074,20.1613099 5.95191744,20.1613099 L7.93588992,20.1613099 L7.93588992,19.1835875 C7.93588992,18.6431677 8.38021709,18.2058651 8.92787616,18.2058651 L42.6554083,18.2058651 C43.2030674,18.2058651 43.6473945,18.6431677 43.6473945,19.1835875 L43.6473945,20.1613099 L45.631367,20.1613099 C48.9134637,20.1613099 51.5832845,22.792741 51.5832845,26.0276442 Z" id="Path" fill-opacity="0.45"></path>
                        <path d="M9.10293255,28.3202346 L10.6094026,49.9925189 C10.8298259,53.1684309 13.4012741,55.6290323 16.4994592,55.6290323 L33.0607326,55.6290323 C36.1590817,55.6290323 38.7304316,53.1684871 38.9507893,49.9925189 L40.457478,28.3202346 L9.10293255,28.3202346 Z M33.1459777,49.5604106 L30.1932942,49.5604106 C29.3784629,49.5604106 28.7169525,48.8806125 28.7169525,48.0432551 C28.7169525,47.2058977 29.3784629,46.5260997 30.1932942,46.5260997 L33.1459777,46.5260997 C33.9608089,46.5260997 34.6223194,47.2058977 34.6223194,48.0432551 C34.6223194,48.8806125 33.9608089,49.5604106 33.1459777,49.5604106 Z M33.1459777,43.4917889 L30.1932942,43.4917889 C29.3784629,43.4917889 28.7169525,42.8119908 28.7169525,41.9746334 C28.7169525,41.137276 29.3784629,40.457478 30.1932942,40.457478 L33.1459777,40.457478 C33.9608089,40.457478 34.6223194,41.137276 34.6223194,41.9746334 C34.6223194,42.8119908 33.9608089,43.4917889 33.1459777,43.4917889 Z M33.1459777,37.4231672 L30.1932942,37.4231672 C29.3784629,37.4231672 28.7169525,36.7433691 28.7169525,35.9060117 C28.7169525,35.0686543 29.3784629,34.3888563 30.1932942,34.3888563 L33.1459777,34.3888563 C33.9608089,34.3888563 34.6223194,35.0686543 34.6223194,35.9060117 C34.6223194,36.7433691 33.9608089,37.4231672 33.1459777,37.4231672 Z" id="Shape"></path>
                    </g>
                </g>
            </g>
        </g>
    </g>
</svg>