<?xml version="1.0" encoding="UTF-8"?>
<svg width="80px" height="80px" viewBox="0 0 80 80" version="1.1" xmlns="http://www.w3.org/2000/svg" xmlns:xlink="http://www.w3.org/1999/xlink">
    <title>Group 13</title>
    <defs>
        <path d="M0,0.838105881 C0,3.68431345 2.31517184,6 5.16177703,6 L5.16177703,6 C5.62531433,6 6,5.62452857 6,5.16189412 L6,5.16189412 C6,4.69842157 5.62531433,4.32378824 5.16177703,4.32378824 L5.16177703,4.32378824 C3.24056999,4.32378824 1.67644593,2.75988267 1.67644593,0.838105881 L1.67644593,0.838105881 C1.67644593,0.374633329 1.30176027,0 0.838222967,0 L0.838222967,0 C0.375523889,0 0,0.374633329 0,0.838105881" id="path-1"></path>
        <path d="M0,0.881744109 C0,4.80687073 3.19348089,8 7.11815879,8 L7.11815879,8 C7.60532981,8 8,7.60625413 8,7.11825589 L8,7.11825589 C8,6.63201938 7.60532981,6.23827351 7.11815879,6.23827351 L7.11815879,6.23827351 C4.16518005,6.23827351 1.76192049,3.83615944 1.76192049,0.881744109 L1.76192049,0.881744109 C1.76192049,0.394626734 1.36813126,0 0.880960247,0 L0.880960247,0 C0.394670191,0 0,0.394626734 0,0.881744109" id="path-3"></path>
        <path d="M0,0.838105881 C0,3.68431345 2.31517184,6 5.16177703,6 L5.16177703,6 C5.62531433,6 6,5.62452857 6,5.16189412 L6,5.16189412 C6,4.69842157 5.62531433,4.32378824 5.16177703,4.32378824 L5.16177703,4.32378824 C3.24056999,4.32378824 1.67644593,2.75988267 1.67644593,0.838105881 L1.67644593,0.838105881 C1.67644593,0.374633329 1.30176027,0 0.838222967,0 L0.838222967,0 C0.375523889,0 0,0.374633329 0,0.838105881" id="path-5"></path>
        <path d="M0,0.881744109 C0,4.80687073 3.19348089,8 7.11815879,8 L7.11815879,8 C7.60532981,8 8,7.60625413 8,7.11825589 L8,7.11825589 C8,6.63201938 7.60532981,6.23827351 7.11815879,6.23827351 L7.11815879,6.23827351 C4.16518005,6.23827351 1.76192049,3.83615944 1.76192049,0.881744109 L1.76192049,0.881744109 C1.76192049,0.394626734 1.36813126,0 0.880960247,0 L0.880960247,0 C0.394670191,0 0,0.394626734 0,0.881744109" id="path-7"></path>
    </defs>
    <g id="1.1" stroke="none" stroke-width="1" fill="none" fill-rule="evenodd">
        <g id="1.1-About-Rett---DESKTOP" transform="translate(-733, -1280)">
            <g id="Group-13" transform="translate(733, 1280)">
                <g id="Group-4">
                    <g id="Group-8-Copy" fill="#FFFFFF">
                        <rect id="Rectangle-Copy-6" x="0" y="0" width="80" height="80" rx="40"></rect>
                        <rect id="Rectangle" stroke="#9E3795" stroke-width="2" opacity="0.3" x="1" y="1" width="78" height="78" rx="39"></rect>
                    </g>
                    <g id="Group-60" transform="translate(18.4, 19.2)">
                        <line x1="23.0819672" y1="15.9870384" x2="10.8196721" y2="3.63341781" id="Stroke-9" stroke="#FFFFFF" stroke-width="1.14816"></line>
                        <line x1="18.7540984" y1="18.8937726" x2="6.49180328" y2="6.54015206" id="Stroke-11" stroke="#FFFFFF" stroke-width="1.14816"></line>
                        <polyline id="Stroke-13" stroke="#FFFFFF" stroke-width="1.14816" points="16.5901639 23.253874 16.0042356 22.6633476 15.0429838 21.6954604 5.7704918 12.3536205"></polyline>
                        <path d="M43.2639304,13.5088958 L43.2109904,13.455854 C42.6135247,12.8572397 41.7798652,12.6433239 41.0049632,12.7977862 C40.9304982,12.8123582 40.8810487,12.7284239 40.9345705,12.6742164 L43.0992928,10.5059151 C44.080719,9.52260214 44.0801372,7.91386249 43.0987111,6.93054952 L43.0457711,6.87750774 C42.3371896,6.16756394 41.2946788,5.98978655 40.4144786,6.33659818 C40.3999347,6.34242694 40.3882995,6.3261064 40.3999347,6.31444886 L41.3749615,5.33754754 C42.3563876,4.35423457 42.3563876,2.74549491 41.3743797,1.76276482 L41.3743797,1.76276482 C40.3923718,0.780617602 38.7867191,0.780617602 37.805293,1.76393057 L36.0797981,3.49215995 C36.0227858,3.54928186 35.9314498,3.48982844 35.9605377,3.41463735 C36.3020298,2.5356593 36.12343,1.49755593 35.418339,0.790526506 L35.3648173,0.737484727 C34.3839729,-0.245828242 32.7777385,-0.245828242 31.7968941,0.737484727 L15.5768931,16.9886696 C15.5367518,17.0288881 15.4686861,16.996247 15.4745037,16.939708 L16.5885707,6.53127899 C16.792186,5.33521603 15.9817968,4.18986334 14.788029,3.98643938 C13.5948428,3.78301541 12.4516879,4.59496264 12.2486543,5.79044272 L8.44628257,16.3906381 C8.44628257,16.3918039 8.44570082,16.3929696 8.44511906,16.3941354 C8.44511906,16.3941354 6.74696681,23.8048296 5.37518092,27.0024911 C4.00397679,30.1995697 0.0154424186,32.9734799 0.0154424186,32.9734799 C-0.00608263561,32.9973778 -0.00491911917,33.0335162 0.0177694515,33.0562484 L10.5342128,43.5835842 C10.5586467,43.6074821 10.5982062,43.6068993 10.6214766,43.5812527 C10.6214766,43.5812527 12.6710108,40.0496028 17.1109895,37.8719755 C21.2531081,35.8406503 23.4946225,36.0411599 26.1410407,34.0984319 C28.7880406,32.1562868 35.4235748,24.9402734 35.4235748,24.9402734 L43.2639304,17.0848443 C44.2453565,16.1015313 44.2453565,14.4922088 43.2639304,13.5088958" id="Fill-15" fill="#9E3795" opacity="0.5"></path>
                        <path d="M43.2639304,13.5088958 L43.2109904,13.455854 C42.6135247,12.8572397 41.7798652,12.6433239 41.0049632,12.7977862 C40.9304982,12.8123582 40.8810487,12.7284239 40.9345705,12.6742164 L43.0992928,10.5059151 C44.080719,9.52260214 44.0801372,7.91386249 43.0987111,6.93054952 L43.0457711,6.87750774 C42.3371896,6.16756394 41.2946788,5.98978655 40.4144786,6.33659818 C40.3999347,6.34242694 40.3882995,6.3261064 40.3999347,6.31444886 L41.3749615,5.33754754 C42.3563876,4.35423457 42.3563876,2.74549491 41.3743797,1.76276482 C40.3923718,0.780617602 38.7867191,0.780617602 37.805293,1.76393057 L36.0797981,3.49215995 C36.0227858,3.54928186 35.9314498,3.48982844 35.9605377,3.41463735 C36.3020298,2.5356593 36.12343,1.49755593 35.418339,0.790526506 L35.3648173,0.737484727 C34.3839729,-0.245828242 32.7777385,-0.245828242 31.7968941,0.737484727 L15.5768931,16.9886696 C15.5367518,17.0288881 15.4686861,16.996247 15.4745037,16.939708 L16.5885707,6.53127899 C16.792186,5.33521603 15.9817968,4.18986334 14.788029,3.98643938 C13.5948428,3.78301541 12.4516879,4.59496264 12.2486543,5.79044272 L8.44628257,16.3906381 C8.44628257,16.3918039 8.44570082,16.3929696 8.44511906,16.3941354 C8.44511906,16.3941354 6.74696681,23.8048296 5.37518092,27.0024911 C4.00397679,30.1995697 0.0154424186,32.9734799 0.0154424186,32.9734799 C-0.00608263561,32.9973778 -0.00491911917,33.0335162 0.0177694515,33.0562484 L10.5342128,43.5835842 C10.5586467,43.6074821 10.5982062,43.6068993 10.6214766,43.5812527 C10.6214766,43.5812527 12.6710108,40.0496028 17.1109895,37.8719755 C21.2531081,35.8406503 23.4946225,36.0411599 26.1410407,34.0984319 C28.7880406,32.1562868 35.4235748,24.9402734 35.4235748,24.9402734 L43.2639304,17.0848443 C44.2453565,16.1015313 44.2453565,14.4922088 43.2639304,13.5088958 Z" id="Stroke-17" stroke="#FFFFFF" stroke-width="1.14816"></path>
                        <line x1="23.8032787" y1="15.9870384" x2="36.4065905" y2="2.90673425" id="Stroke-19" stroke="#FFFFFF" stroke-width="1.14816"></line>
                        <line x1="28.1311475" y1="18.8937726" x2="40.3999347" y2="6.31444886" id="Stroke-21" stroke="#FFFFFF" stroke-width="1.14816"></line>
                        <polyline id="Stroke-23" stroke="#FFFFFF" stroke-width="1.2" points="30.295082 23.253874 30.8810103 22.6633476 31.8422621 21.6954604 40.9345705 12.6742164"></polyline>
                    </g>
                </g>
                <g id="Group-9" transform="translate(64.7375, 36.4042) rotate(-114) translate(-64.7375, -36.4042)translate(61.7375, 33.4042)">
                    <mask id="mask-2" fill="white">
                        <use xlink:href="#path-1"></use>
                    </mask>
                    <g id="Clip-8"></g>
                    <path d="M0,0.838105881 C0,3.68431345 2.31517184,6 5.16177703,6 L5.16177703,6 C5.62531433,6 6,5.62452857 6,5.16189412 L6,5.16189412 C6,4.69842157 5.62531433,4.32378824 5.16177703,4.32378824 L5.16177703,4.32378824 C3.24056999,4.32378824 1.67644593,2.75988267 1.67644593,0.838105881 L1.67644593,0.838105881 C1.67644593,0.374633329 1.30176027,0 0.838222967,0 L0.838222967,0 C0.375523889,0 0,0.374633329 0,0.838105881" id="Fill-7" fill="#D3A5CF" mask="url(#mask-2)"></path>
                </g>
                <g id="Group-12" transform="translate(66.3172, 37.206) rotate(-114) translate(-66.3172, -37.206)translate(62.3172, 33.206)">
                    <mask id="mask-4" fill="white">
                        <use xlink:href="#path-3"></use>
                    </mask>
                    <g id="Clip-11"></g>
                    <path d="M0,0.881744109 C0,4.80687073 3.19348089,8 7.11815879,8 L7.11815879,8 C7.60532981,8 8,7.60625413 8,7.11825589 L8,7.11825589 C8,6.63201938 7.60532981,6.23827351 7.11815879,6.23827351 L7.11815879,6.23827351 C4.16518005,6.23827351 1.76192049,3.83615944 1.76192049,0.881744109 L1.76192049,0.881744109 C1.76192049,0.394626734 1.36813126,0 0.880960247,0 L0.880960247,0 C0.394670191,0 0,0.394626734 0,0.881744109" id="Fill-10" fill="#D3A5CF" mask="url(#mask-4)"></path>
                </g>
                <g id="Group-9-Copy" transform="translate(23.7134, 35.8518) rotate(60) translate(-23.7134, -35.8518)translate(20.7134, 32.8518)">
                    <mask id="mask-6" fill="white">
                        <use xlink:href="#path-5"></use>
                    </mask>
                    <g id="Clip-8"></g>
                    <path d="M0,0.838105881 C0,3.68431345 2.31517184,6 5.16177703,6 L5.16177703,6 C5.62531433,6 6,5.62452857 6,5.16189412 L6,5.16189412 C6,4.69842157 5.62531433,4.32378824 5.16177703,4.32378824 L5.16177703,4.32378824 C3.24056999,4.32378824 1.67644593,2.75988267 1.67644593,0.838105881 L1.67644593,0.838105881 C1.67644593,0.374633329 1.30176027,0 0.838222967,0 L0.838222967,0 C0.375523889,0 0,0.374633329 0,0.838105881" id="Fill-7" fill="#D3A5CF" mask="url(#mask-6)"></path>
                </g>
                <g id="Group-12-Copy" transform="translate(22.0585, 35.2196) rotate(60) translate(-22.0585, -35.2196)translate(18.0585, 31.2196)">
                    <mask id="mask-8" fill="white">
                        <use xlink:href="#path-7"></use>
                    </mask>
                    <g id="Clip-11"></g>
                    <path d="M0,0.881744109 C0,4.80687073 3.19348089,8 7.11815879,8 L7.11815879,8 C7.60532981,8 8,7.60625413 8,7.11825589 L8,7.11825589 C8,6.63201938 7.60532981,6.23827351 7.11815879,6.23827351 L7.11815879,6.23827351 C4.16518005,6.23827351 1.76192049,3.83615944 1.76192049,0.881744109 L1.76192049,0.881744109 C1.76192049,0.394626734 1.36813126,0 0.880960247,0 L0.880960247,0 C0.394670191,0 0,0.394626734 0,0.881744109" id="Fill-10" fill="#D3A5CF" mask="url(#mask-8)"></path>
                </g>
            </g>
        </g>
    </g>
</svg>