<?xml version="1.0" encoding="UTF-8"?>
<svg width="80px" height="80px" viewBox="0 0 80 80" version="1.1" xmlns="http://www.w3.org/2000/svg" xmlns:xlink="http://www.w3.org/1999/xlink">
    <title>Group 16</title>
    <defs>
        <polygon id="path-1" points="0 0 14 0 14 14 0 14"></polygon>
    </defs>
    <g id="1.1" stroke="none" stroke-width="1" fill="none" fill-rule="evenodd">
        <g id="1.1-About-Rett---DESKTOP" transform="translate(-312, -1380)">
            <g id="Group-16" transform="translate(312, 1380)">
                <rect id="Rectangle-Copy-8" fill="#FFFFFF" x="0" y="0" width="80" height="80" rx="40"></rect>
                <rect id="Rectangle" stroke="#9E3795" stroke-width="2" fill="#FFFFFF" opacity="0.3" x="1" y="1" width="78" height="78" rx="39"></rect>
                <g id="Group-53" transform="translate(13, 17.9998)">
                    <path d="M26,34 C29.4346405,35.6204063 33.5874183,35.2977878 33.5906863,35.2969752 C33.6176471,35.2888488 50,43 50,43" id="Fill-1" fill="#FFFFFF"></path>
                    <path d="M49.2019181,43 C49.0879816,43 48.9716549,42.9770541 48.8617022,42.9265732 C44.7615825,41.0641334 34.3519315,36.3380488 33.0245317,35.7483399 C31.8660447,35.8057046 28.4280313,35.8087641 25.455325,34.4557226 C25.0577425,34.275215 24.8880329,33.8185922 25.0776615,33.4369259 C25.2656965,33.0560244 25.7413614,32.8931087 26.1389439,33.0736163 C29.0518933,34.3998876 32.5831274,34.2553286 33.0771177,34.2262638 C33.0930529,34.2232044 33.1145654,34.2201449 33.1344843,34.2232044 L33.1352811,34.2224395 L33.1352811,34.2232044 C33.4778873,34.2461503 35.0228022,34.9482939 49.5437276,41.5437021 C49.9413101,41.7242096 50.1118164,42.1808324 49.9229846,42.5624987 C49.7867389,42.838614 49.5007026,43 49.2019181,43" id="Fill-3" fill="#9E3795"></path>
                    <path d="M59,29 C56.5528611,28.0682953 50.2316802,23.7878093 49.273277,22.3473293 C47.5284915,19.7262699 46.2783658,16.3349594 41.5925745,14.2707177 C36.9059904,12.2072635 30.9129973,5.69556922 30.9129973,5.69556922 C29.0611941,2.74372716 25.738888,3.86760085 26.0163413,7.35735864 C26.1518971,9.05616422 27.5145896,10.6777872 28.5752543,11.9111342 C29.6050027,13.1090402 30.7806124,14.1998356 32.0140908,15.2173863" id="Fill-5" fill="#FFFFFF"></path>
                    <path d="M28.7973766,12.3581223 C27.7552646,11.1419929 26.1796618,9.30579745 26.0184112,7.27598141 C25.8595674,5.26776767 26.7388243,3.64679514 28.2582702,3.14754201 C29.7368017,2.66029015 31.3613412,3.40276917 32.4122779,5.03654306 C32.9826717,5.64780812 38.5871325,11.5956412 42.906402,13.5054444 C47.008264,15.3192375 48.6472439,18.0683301 50.0936858,20.4941883 C50.4041533,21.0126434 50.7057962,21.5190973 51.0234839,21.9999485 C51.8706512,23.2768844 58.1481928,27.5589402 60.485123,28.4526353 C60.8990797,28.6102521 61.1052559,29.0743015 60.946412,29.4863453 C60.8244713,29.8047792 60.5204216,30 60.1979205,30 C60.1016515,30 60.0045802,29.9823981 59.9099157,29.9463943 C57.4181528,28.9934929 50.7836137,24.5402189 49.6853447,22.8824425 C49.3532166,22.3815891 49.0371334,21.8535329 48.7146322,21.3110752 C47.326754,18.9828274 45.8907413,16.5753712 42.255784,14.9680001 C37.4150573,12.8285724 31.433543,6.34068186 31.181639,6.06545257 C31.1487471,6.02944874 31.1190642,5.99024456 31.0925902,5.94864014 C30.4387632,4.90132867 29.5418569,4.41167655 28.7596712,4.6677038 C27.9670564,4.92773148 27.5186033,5.9022352 27.6180812,7.14956795 C27.7384175,8.66092881 29.1102509,10.260299 30.0175863,11.3180116" id="Fill-7" fill="#9E3795"></path>
                    <g id="Group-12" transform="translate(33.4795, 12.0961)">
                        <path d="M0.0590729195,0.722308009 C0.234161722,0.607013107 -0.137424121,0.810185222 0.0590729195,0.722308009 C2.76186295,-0.484070361 5.54187555,-0.0320299808 8,1" id="Fill-9" fill="#FFFFFF"></path>
                        <path d="M0.0590729195,0.722308009 C0.234161722,0.607013107 -0.137424121,0.810185222 0.0590729195,0.722308009 C2.76186295,-0.484070361 5.54187555,-0.0320299808 8,1" id="Stroke-11" stroke="#433E49" stroke-width="1.6" stroke-linecap="round" stroke-linejoin="round"></path>
                    </g>
                    <path d="M38,4.43523353 C36.4755123,0.832505911 31.6690628,-0.281442744 27.8340611,0.0578634559 C23.6524017,0.426778923 20.3099765,3.51654599 18.0776621,6.83998619 C15.931609,10.0353863 15.2608666,13.676526 13.6581794,17.1055992 C12.2562311,20.1065385 3.87356399,32.2799487 2,35" id="Fill-13" fill="#FFFFFF"></path>
                    <g id="Group-17" transform="translate(0.6165, 0)" fill="#9E3795">
                        <path d="M0.794284263,37 C0.640113518,37 0.48355869,36.9539225 0.346871226,36.8585341 C-0.0163041882,36.607129 -0.109283452,36.1043187 0.139455946,35.735699 C6.6321105,26.0731733 10.6906156,19.6958902 11.566369,17.7759958 C12.1520589,16.4898686 12.6217234,15.1374545 13.0746993,13.8286928 C13.8336326,11.6412257 14.6179961,9.3793879 15.981692,7.29781812 C17.6171734,4.80316789 21.1178029,0.548681782 26.1895436,0.0895238663 C30.4157293,-0.291221518 35.3166106,0.435509057 36.9377876,4.36098589 C37.1078522,4.77325796 36.9171255,5.24615828 36.5134207,5.41915087 C36.1097158,5.59052672 35.6432301,5.39894146 35.4723708,4.98747776 C34.1619195,1.8129828 29.9722897,1.37241755 26.3309993,1.69981008 C21.9188551,2.09914813 18.7821956,5.94055379 17.3040637,8.19430778 C16.0500357,10.1069269 15.3332212,12.176371 14.5742879,14.3662632 C14.1078022,15.7105935 13.6254226,17.1010013 13.007945,18.4566489 C11.8389493,21.017586 6.07820839,29.7626042 1.45070197,36.6475478 C1.29732592,36.8771268 1.04779183,37 0.794284263,37" id="Fill-15"></path>
                    </g>
                    <path d="M38.9849288,5.26560967 C36.6465447,3.37826492 34.2327027,2.51938873 31.8083128,2.70409328 C26.3915702,3.11967854 22.5075159,8.59700824 22.4701926,8.65241961 C22.3103517,8.87994204 22.0628822,9 21.8105444,9 C21.6466465,9 21.4803146,8.94962603 21.3367011,8.84216156 C20.9740163,8.57182125 20.891256,8.0470924 21.1525189,7.67096675 C21.3269646,7.41993647 25.5023027,1.51106975 31.67687,1.0308379 C35.2712633,0.752101936 38.7350251,2.36406898 42,5.82056291 L38.9849288,5.26560967 Z" id="Fill-18" fill="#9E3795"></path>
                    <path d="M41.9662916,14 C41.9352565,14 41.902588,13.9983453 41.8707362,13.9942084 C41.4223609,13.9412567 41.1013928,13.5308811 41.1544791,13.0766548 C41.5922372,9.28729905 41.3504902,6.8159441 40.4357718,5.73208907 C39.7284985,4.89313564 38.5736666,4.84680291 37.2367078,4.79219647 C36.7393297,4.77233958 36.2248006,4.75082796 35.7143551,4.68546571 C32.6786336,4.29991117 29.6959984,7.59780899 27.0669999,10.5109796 C26.4887673,11.1521916 25.9317691,11.7685824 25.4000891,12.3171289 C25.0823878,12.6439402 24.5654086,12.6464223 24.2452572,12.3278847 C23.9226556,12.0076924 23.9177553,11.4839671 24.2338232,11.1579832 C24.7540693,10.6218473 25.2971833,10.0195217 25.8607151,9.39485718 C28.6146707,6.34268832 32.0334305,2.54836835 35.9201667,3.04396313 C36.3603749,3.1002243 36.8169174,3.11925382 37.3012281,3.13828334 C38.8039797,3.19950873 40.5060091,3.26818046 41.6771753,4.65650775 C42.9340963,6.14660157 43.2828327,8.88271499 42.7764707,13.2686047 C42.7282847,13.6897362 42.3754647,14 41.9662916,14" id="Fill-20" fill="#9E3795"></path>
                    <path d="M44.9827521,17.1335894 C42.4667333,16.1779245 51.9130106,24.2966329 50.927631,22.8199166 C49.1337348,20.1306449 47.8484217,16.6521217 43.0307388,14.5356027 C38.2122409,12.4182759 32.0513772,5.73912361 32.0513772,5.73912361 C30.1466361,2.71137049 26.7308166,3.86414629 27.0168945,7.44445628 C27.1554508,9.18614138 28.5573142,10.8502746 29.6470185,12.1145312 C30.7057514,13.3432432 31.914451,14.4628979 33.1834634,15.5066164 L44.9827521,17.1335894 Z" id="Fill-22" fill="#FFFFFF"></path>
                    <path d="M51,23 C49.2126047,20.3389166 47.772781,16.5195545 42.9725566,14.424421 C38.1723323,12.3300868 32.0329826,5.72094375 32.0329826,5.72094375 C30.1351439,2.72492678 26.7325149,3.86561947 27.0167441,7.40760218 C27.1547983,9.13183073 28.5515815,10.7777216 29.6373369,12.0295259 C30.6930452,13.2453588 31.412551,14.4284178 32.7061997,15.254161" id="Fill-24" fill="#FFFFFF"></path>
                    <path d="M50.2081652,24 C49.9514573,24 49.6987109,23.8720672 49.5465877,23.6349432 C49.2051027,23.1036553 48.8755024,22.528365 48.5340175,21.9294437 C47.1625316,19.5296845 45.6072302,16.8088708 42.0545191,15.1889315 C37.2745224,13.0091841 31.3662784,6.40067896 31.1167012,6.12118239 L31.0295473,6.002213 C30.3838159,4.93474793 29.5011844,4.43686918 28.7255144,4.69843887 C27.9427137,4.96326799 27.4998133,5.95495118 27.5980595,7.22613096 C27.7161135,8.76051014 29.0709609,10.3926724 29.967854,11.4723603 C30.2475389,11.808897 30.5042468,12.1429891 30.7530317,12.4697475 C31.4074784,13.3229047 31.9723944,14.060352 32.7900567,14.6063074 C33.1568955,14.850765 33.2614802,15.3559775 33.0237876,15.7324423 C32.7860951,16.1113517 32.2940716,16.2180982 31.9280251,15.9728257 C30.890101,15.2810105 30.2190158,14.4050373 29.5083151,13.4777279 C29.2714149,13.1680816 29.0289685,12.8502866 28.7627529,12.530862 C27.7335442,11.2906468 26.1766582,9.41728636 26.0181965,7.35487866 C25.8613194,5.30958299 26.7288972,3.658679 28.2303216,3.15020709 C29.6889615,2.65477292 31.2941783,3.40770248 32.3321024,5.07245907 C32.8954337,5.69582608 38.432085,11.7543015 42.6970813,13.6985547 C46.7156696,15.5303573 48.4809328,18.6211169 49.8999572,21.1039917 C50.2271806,21.6768375 50.5417271,22.227682 50.8681581,22.7353391 C51.1098122,23.110989 51.0099813,23.6162015 50.6447272,23.8647334 C50.5100347,23.9559976 50.3579115,24 50.2081652,24" id="Fill-26" fill="#9E3795"></path>
                    <path d="M30,30.8979822 C35.9847489,31.5879429 43.7919367,28.7645511 45.9179794,22.8421132 C46.3676721,21.5909405 45.0145133,16.9724953 40.7093789,20.0533845 C37.8708467,22.0853022 37.1240793,24.027261 33.1388715,22.4822773 C29.3756535,21.0214753 28.9463643,16.6374187 32.2819253,15 L33.7436306,16.5392066" id="Fill-28" fill="#FFFFFF"></path>
                    <path d="M44.4646571,18.5290559 C43.7263647,17.9595033 42.1182814,17.2710595 39.6174348,19.0656725 C39.0090565,19.5026777 38.4965294,19.9348629 38.0434144,20.3164391 C36.434539,21.6724404 35.6281209,22.3536543 33.0116189,21.3350467 C31.519191,20.7550509 30.5567175,19.5669431 30.5004742,18.2350414 C30.4592819,17.2557964 30.9100205,16.3970492 31.7528779,15.8114302 L32.7438691,16.8573506 C33.046474,17.1762679 33.5479107,17.1875144 33.8639823,16.8790402 C34.1792617,16.5713693 34.1887676,16.0636721 33.8861627,15.7431481 L32.4666134,14.2457628 C32.2297578,13.9951275 31.8582351,13.9292554 31.549293,14.0802793 C29.8263467,14.9285834 28.8416928,16.5071038 28.9177401,18.3041268 C29.0009168,20.285913 30.3531326,22.0218838 32.4436408,22.8348419 C35.9267649,24.1900399 37.3082906,23.0260317 39.0557939,21.5527459 C39.5073246,21.1711698 39.9746986,20.7783471 40.5331708,20.3774913 C41.4108832,19.7484931 42.6347693,19.1355612 43.5037679,19.8071353 C44.3236527,20.4417568 44.5066415,21.8250708 44.3854412,22.1616612 C42.4739609,27.5045311 35.3065042,30.1217421 29.7701034,29.4790874 C24.042,28.8179565 22.4584737,31.5765515 21.1926033,33.7953166 C21.042093,34.058805 20.8923749,34.3206867 20.7371117,34.5769453 C20.7133469,34.6155046 20.6919586,34.6572771 20.6753233,34.7014596 L17.0567399,43.899454 C16.8943473,44.3115562 17.0923871,44.7790875 17.4995569,44.9429644 C17.5954082,44.982327 17.6944281,45 17.7926559,45 C18.1071431,45 18.4049949,44.8088102 18.5285718,44.4939095 L22.1210139,35.3601806 C22.2715241,35.1111519 22.4172814,34.8565 22.5638309,34.6002415 C23.8098974,32.4160191 24.8824809,30.5346477 29.5910754,31.0744776 C30.1836105,31.1435629 30.7919888,31.1773023 31.4122495,31.1773023 C37.2132315,31.1773023 43.9101456,28.2010081 45.8747005,22.7103276 C46.2287957,21.7238527 45.8548965,19.6046991 44.4646571,18.5290559" id="Fill-30" fill="#9E3795"></path>
                    <path d="M6.68563036,28.9800765 C0.985879564,26.466967 0.547619096,23.8972948 1.25861,21.9953761 C2.11621322,19.7006612 4.32643328,18.9991274 10.3950796,21.978093 L8.62154351,24.1007632 C6.32067605,23.2460389 5.90685097,24.3607942 11.0296114,27.2329194 C12.245863,27.8991016 12.2797572,28.9392257 11.3496361,29.6085503 C9.7361124,30.76887 6.68563036,28.9800765 6.68563036,28.9800765" id="Fill-32" fill="#FFFFFF"></path>
                    <path d="M4.09663133,20.6262349 C3.68469239,20.6262349 3.33218337,20.684899 3.03666196,20.8022272 C2.49690797,21.0173288 2.12078981,21.4499764 1.85539041,22.1653523 C1.54440093,22.9988711 0.600849088,25.5360926 7.02660811,28.3813006 C7.0542878,28.3927075 7.0827816,28.4073735 7.10883308,28.4236691 C7.80978056,28.8335029 10.0355534,29.8381253 11.0377211,29.1170459 C11.2550881,28.9597936 11.3804608,28.781357 11.3715056,28.6387707 C11.3625504,28.4929253 11.2054275,28.2558246 10.7910462,28.0268718 C6.21249953,25.4489113 5.94872835,24.3416268 6.29309628,23.5977336 C6.58698948,22.9622061 7.30259092,22.8008798 8.42524665,23.1178288 L9.23202825,22.1474272 C7.02905044,21.1354718 5.31046722,20.6262349 4.09663133,20.6262349 L4.09663133,20.6262349 Z M10.0843999,31 C8.41629146,31 6.703407,30.0695225 6.32647473,29.8519765 C1.16258401,27.5559296 -0.855591162,24.779163 0.328936822,21.5966366 C0.756343827,20.4502427 1.46461829,19.6737584 2.43584983,19.288368 C4.21549118,18.5811399 6.90042128,19.1669659 10.887111,21.1322126 C11.1109909,21.2430226 11.2721844,21.4499764 11.3242873,21.6944101 C11.3763903,21.9388438 11.3128898,22.1930548 11.1533245,22.3845278 L9.32239431,24.5860604 C9.19702159,24.7367945 9.02524467,24.8329384 8.84044203,24.8663444 C9.40543338,25.2908442 10.2675744,25.8636338 11.5823597,26.603453 C12.4445007,27.0776543 12.9484339,27.7669573 12.9964663,28.5393677 C13.0404282,29.253114 12.6724511,29.9456761 11.9902281,30.4386173 C11.4219803,30.8484511 10.7568536,30.9991852 10.0843999,31 L10.0843999,31 Z" id="Fill-34" fill="#9E3795"></path>
                    <path d="M7.7982467,25.6024715 C1.0670606,22.2246336 0.486743116,18.9124645 1.26739845,16.4876448 C2.20948304,13.5629215 4.77496646,12.7198985 11.9490482,16.7059935 L9.93242427,19.3852797 C7.21875706,18.2270466 6.76427162,19.6479549 12.8307003,23.4723405 C14.271146,24.3596899 14.3373734,25.6976913 13.2678011,26.5325056 C11.4126064,27.9805022 7.7982467,25.6024715 7.7982467,25.6024715" id="Fill-36" fill="#FFFFFF"></path>
                    <g id="Group-40" transform="translate(0, 12.4781)">
                        <mask id="mask-2" fill="white">
                            <use xlink:href="#path-1"></use>
                        </mask>
                        <g id="Clip-39"></g>
                        <path d="M4.1385846,1.5675378 C3.75203219,1.5675378 3.41528102,1.62247924 3.12991206,1.73393187 C2.5133254,1.97567419 2.09199119,2.50468173 1.80425075,3.40022715 C0.914943064,6.16535116 2.88011542,8.78213329 7.6436426,11.1760102 C7.67130995,11.1893531 7.69818681,11.2050506 7.72348267,11.2215331 C8.49737798,11.7293489 10.9463337,12.9914322 12.0214079,12.1484736 C12.2119173,12.0001317 12.4348371,11.7568196 12.4174462,11.4460081 C12.4000553,11.1289175 12.1297058,10.7867108 11.6751708,10.5065095 C5.99862102,6.9227581 6.58437834,5.82392937 6.83338449,5.35535741 C7.16618319,4.73059479 7.91241115,4.60972363 9.04993448,4.98646491 L10.0728359,3.62548704 C7.48712445,2.25587551 5.49981822,1.5675378 4.1385846,1.5675378 L4.1385846,1.5675378 Z M11.0562126,14 C9.22463404,14 7.29503399,12.8187591 6.89030019,12.55661 C1.35683017,9.76636988 -0.85971982,6.52482513 0.298356405,2.92223665 C0.735500536,1.56204366 1.47224254,0.695538717 2.54968821,0.274059411 C4.45320189,-0.471574369 7.34088274,0.295251108 11.637227,2.6852036 C11.8356414,2.79587135 11.9763496,2.98581174 12.0237794,3.20636236 C12.0712091,3.42769787 12.0206174,3.6584519 11.8846521,3.83897376 L9.95900456,6.40159933 C9.75268518,6.67630652 9.39380012,6.782265 9.07127787,6.67552164 C9.66889263,7.22258137 10.7099755,8.03728439 12.5162582,9.17771163 C13.4213758,9.73575965 13.9494269,10.5120037 13.9968567,11.3588867 C14.0379625,12.1162936 13.6743344,12.8532937 12.9984606,13.3823013 C12.4229797,13.8320362 11.7471059,13.9992151 11.0562126,14 L11.0562126,14 Z" id="Fill-38" fill="#9E3795" mask="url(#mask-2)"></path>
                    </g>
                    <path d="M10.4501599,22.1385625 C3.73501184,17.7695711 3.02347827,13.7507506 3.67978595,10.8614344 C4.47055666,7.37601353 6.93731307,6.47289864 14.1118765,11.59435 L12.261409,14.7369292 C9.56254377,13.2206083 9.18156517,14.9136433 15.2676183,19.7916039 C16.7122956,20.92518 16.8355533,22.5408517 15.827881,23.5001568 C14.0806619,25.1646896 10.4501599,22.1385625 10.4501599,22.1385625" id="Fill-41" fill="#FFFFFF"></path>
                    <path d="M6.47488955,8.5630849 C6.17726965,8.5630849 5.91335809,8.60548754 5.68479916,8.68872234 C5.03118641,8.92821871 4.58146794,9.59174144 4.30933484,10.717767 C3.46991518,14.1900717 5.68890993,17.5665779 10.907124,20.7522722 C10.9334329,20.7695473 10.9597418,20.7868225 10.9835843,20.8064533 C12.0211432,21.6144591 14.4736298,23.0082495 15.4256846,22.1547001 C15.7134386,21.8963581 15.8564935,21.570486 15.8392283,21.2108489 C15.8137415,20.7075139 15.4840575,20.1955413 14.9093716,19.7730854 C8.65606519,15.0687485 9.46753159,13.9018908 9.77255088,13.4621598 C10.1704736,12.8881537 10.9202784,12.8182679 12.0071666,13.2556433 L13.1236522,11.4755178 C10.1400539,9.53913076 7.9111933,8.5630849 6.47488955,8.5630849 M14.6191511,24 C12.6172051,24 10.4212307,22.3902703 9.9813781,22.0518345 C4.1440818,18.4758788 1.69652813,14.543427 2.70695589,10.3644117 C3.11227802,8.69029281 3.8933247,7.66320675 5.0961366,7.22269048 C7.10465982,6.48771146 10.156497,7.56112633 14.6972558,10.6054785 C15.0507822,10.8410487 15.1519072,11.2980549 14.9299255,11.6514102 L13.0291045,14.680843 C12.8021899,15.0436211 12.3162966,15.1716142 11.9265954,14.9643124 C11.8756219,14.9383997 11.8271147,14.9132722 11.7794298,14.8897152 C12.4018007,15.6215533 13.6366766,16.8166794 15.9206215,18.5347714 C16.875965,19.2391263 17.4325635,20.1641319 17.4818928,21.1370369 C17.5230005,21.9583916 17.1916723,22.7271357 16.5495697,23.3011417 C15.9831053,23.8068324 15.3130494,24 14.6191511,24" id="Fill-43" fill="#9E3795"></path>
                    <path d="M14.4501599,17.2058659 C7.73501184,12.9948429 7.02347827,9.12132963 7.67978595,6.33648159 C8.47055666,2.97708204 13.6361783,3.2643578 18.1118765,7.04289738 L16.261409,10.0718513 C13.5625438,8.61035554 13.1815652,10.242176 19.2676183,14.9437656 C20.7122956,16.0363553 20.8355533,17.5936097 19.827881,18.5182295 C18.0806619,20.1225782 14.4501599,17.2058659 14.4501599,17.2058659" id="Fill-45" fill="#FFFFFF"></path>
                    <path d="M11.0409957,4.61162627 C10.577285,4.61162627 10.1637274,4.67119624 9.81265567,4.7847012 C9.00445072,5.04310609 8.49880876,5.58165087 8.31052907,6.38262554 C7.46943684,9.9431391 9.68850619,13.4046377 14.9068956,16.6705214 C14.9332055,16.6882313 14.9603375,16.7059413 14.9841808,16.7260663 C16.0209523,17.554411 18.4702326,18.9848954 19.4256082,18.1082508 C19.7141941,17.8434059 19.8572537,17.509331 19.8391657,17.1406412 C19.8145003,16.6246364 19.4848053,16.0997766 18.9092778,15.6666868 C12.6565834,10.8439337 13.4672549,9.64770422 13.7722844,9.1969044 C14.1710427,8.60844964 14.9200506,8.53680467 16.0069752,8.98518949 L17.1563857,7.10712525 C14.8690753,5.33612597 12.6516503,4.61162627 11.0409957,4.61162627 M18.6206919,20 C16.6170343,20 14.420986,18.3497507 13.9811187,18.0027958 C8.14362612,14.3368273 5.69599016,10.3053889 6.70727408,6.02037569 C7.02628072,4.67039124 7.94712461,3.68909664 9.30125844,3.25359182 C11.8631777,2.43571215 15.5786184,3.63274666 18.7621073,6.31661557 C19.0654924,6.57260547 19.1370223,7.00489029 18.9306546,7.34057515 L17.0289475,10.4462639 C16.8028474,10.8189787 16.3169378,10.9485837 15.9264014,10.7368688 C15.8762483,10.7103038 15.8269173,10.6845438 15.780053,10.6603938 C16.4024448,11.4106535 17.63654,12.635863 19.9213839,14.3972023 C20.8767595,15.119287 21.4333767,16.0675766 21.4818855,17.0649712 C21.5229946,17.9070009 21.1924774,18.6950955 20.549531,19.2835503 C19.9838698,19.8019701 19.3137914,20 18.6206919,20" id="Fill-47" fill="#9E3795"></path>
                    <path d="M19.2437752,15.2883166 C13.0385533,10.4387032 13.4269917,8.75550691 16.1787024,10.2630161 L18.0654032,7.13869926 C13.502068,3.24119701 8.23530018,2.94487673 7.42904568,6.41004284 C7.28542139,7.02373347 7.21360925,7.69085891 7.24380299,8.4000845 C5.05679683,8.03980437 4.019601,9.17488916 3.55445417,11.1697885 C3.35370659,12.0328416 3.28352654,12.9987162 3.46224085,14.0439333 C1.99254008,14.2009993 1.18546952,15.0972467 0.745620148,16.4638823 C0.282105411,17.9041931 0.317195435,19.6634936 1.85870836,21.5620484 C1.5543228,21.8842764 1.32174938,22.2834182 1.14629926,22.750568 C0.411040848,24.7106538 0.863946974,27.3589151 6.76478336,29.9488838 C6.76478336,29.9488838 9.92288553,31.7923846 11.5933339,30.5965784 C12.5562694,29.9075933 12.5219955,28.8348491 11.2620188,28.1482928 C9.43407333,27.1281739 8.2997679,26.328271 7.67875608,25.7469651 C8.71840005,26.3266518 11.161645,27.4746905 12.5750385,26.3703712 C13.4890112,25.6570975 13.5575592,24.5713994 12.636242,23.7245387 C13.762387,24.2410752 15.0770388,24.5373955 15.9412327,23.7350638 C16.968636,22.7813335 16.8421487,21.1750509 15.3699997,20.0480623 C11.3607605,16.9148396 10.1138405,15.1118198 10.468821,14.6284777 C11.4627664,15.6008292 12.722743,16.6007077 14.3319879,17.6216364 C14.3319879,17.6216364 18.0335774,20.6301778 19.8150081,18.9753181 C20.8424114,18.0215878 20.7167402,16.4153052 19.2437752,15.2883166" id="Fill-49" fill-opacity="0.25" fill="#9E3795"></path>
                    <path d="M61,29.2833817 C58.5073098,28.3411159 52.0684658,24.0121094 51.0922227,22.5553012 C49.3149596,19.9045314 48.041564,16.4747795 43.2685508,14.387139 C38.4947301,12.300295 32.3901827,5.71478895 32.3901827,5.71478895 C30.5039099,2.72948697 27.119762,3.86610007 27.4023799,7.3954152 C27.540459,9.1134772 28.9285168,10.7534817 30.0089248,12.000809 C31.0578411,13.2122936 32.2553336,14.3154535 33.5117722,15.3445384 C33.5117722,15.3445384 28.758946,18.3290439 31.6392265,21.0204354 C34.5186995,23.7110304 38.6110072,22.5154759 39.3692308,21.4688679 C40.1266468,20.4222599 45.1289843,19.3756519 45.1289843,19.3756519 L45.8864003,22.3657329 C45.8864003,22.3657329 45.279983,26.2526789 41.9458989,27.7477194 C38.6110072,29.2427599 36.0343391,30.8875434 32.2456439,30.7385969 C28.4561411,30.5888539 26.0312792,30.4391109 25.1220569,31.1870294 C24.2120272,31.9341514 23,33.2802454 23,33.2802454 L26.4447089,34.1787035 C29.8401615,35.7669351 33.9437739,35.4507225 33.9478113,35.4491295 C33.9744581,35.4419609 50.1652359,43 50.1652359,43 L61,29.2833817 Z" id="Fill-51" fill-opacity="0.25" fill="#9E3795"></path>
                </g>
            </g>
        </g>
    </g>
</svg>