<?xml version="1.0" encoding="UTF-8"?>
<svg width="80px" height="80px" viewBox="0 0 80 80" version="1.1" xmlns="http://www.w3.org/2000/svg" xmlns:xlink="http://www.w3.org/1999/xlink">
    <title>Group 75 Copy 9</title>
    <defs>
        <polygon id="path-1" points="0 0 24 0 24 41 0 41"></polygon>
        <path d="M0,0.838105881 C0,3.68431345 2.31517184,6 5.16177703,6 L5.16177703,6 C5.62531433,6 6,5.62452857 6,5.16189412 L6,5.16189412 C6,4.69842157 5.62531433,4.32378824 5.16177703,4.32378824 L5.16177703,4.32378824 C3.24056999,4.32378824 1.67644593,2.75988267 1.67644593,0.838105881 L1.67644593,0.838105881 C1.67644593,0.374633329 1.30176027,0 0.838222967,0 L0.838222967,0 C0.375523889,0 0,0.374633329 0,0.838105881" id="path-3"></path>
        <path d="M0,0.881744109 C0,4.80687073 3.19348089,8 7.11815879,8 L7.11815879,8 C7.60532981,8 8,7.60625413 8,7.11825589 L8,7.11825589 C8,6.63201938 7.60532981,6.23827351 7.11815879,6.23827351 L7.11815879,6.23827351 C4.16518005,6.23827351 1.76192049,3.83615944 1.76192049,0.881744109 L1.76192049,0.881744109 C1.76192049,0.394626734 1.36813126,0 0.880960247,0 L0.880960247,0 C0.394670191,0 0,0.394626734 0,0.881744109" id="path-5"></path>
        <path d="M0,0.837501747 C0,1.30026547 0.374633329,1.67584183 0.838105881,1.67584183 L0.838105881,1.67584183 C2.75988267,1.67584183 4.32295013,3.23934609 4.32295013,5.16165991 L4.32295013,5.16165991 C4.32295013,5.62442364 4.69758346,6 5.16105601,6 L5.16105601,6 C5.62452857,6 6,5.62442364 6,5.16165991 L6,5.16165991 C6,2.31549532 3.68431345,0 0.838105881,0 L0.838105881,0 C0.374633329,0 0,0.374738019 0,0.837501747" id="path-7"></path>
        <path d="M0,0.880960247 C0,1.36813126 0.39378923,1.76192049 0.880960247,1.76192049 L0.880960247,1.76192049 C3.83481995,1.76192049 6.23807951,4.16518005 6.23807951,7.11903975 L6.23807951,7.11903975 C6.23807951,7.60621077 6.63186874,8 7.11903975,8 L7.11903975,8 C7.60532981,8 8,7.60621077 8,7.11903975 L8,7.11903975 C8,3.19348089 4.80651911,0 0.880960247,0 L0.880960247,0 C0.39378923,0 0,0.394670191 0,0.880960247" id="path-9"></path>
        <path d="M5.07022126,0 C5.03428141,0 4.99834156,0.00270479134 4.96240172,0.00721277692 L4.96240172,0.00721277692 C3.45753584,0.19384338 2.11762464,0.941267388 1.18963937,2.11244204 L1.18963937,2.11244204 C0.261654104,3.28361669 -0.144742621,4.73969603 0.0460150254,6.21200412 L0.0460150254,6.21200412 C0.104993235,6.66731066 0.501253081,7 0.958334205,7 L0.958334205,7 C0.997038655,7 1.03574311,6.99819681 1.07629062,6.99368882 L1.07629062,6.99368882 C1.58129154,6.93057702 1.93884694,6.47887687 1.87433952,5.98570325 L1.87433952,5.98570325 C1.74532469,4.99124163 2.01994198,4.00850077 2.64566392,3.21689851 L2.64566392,3.21689851 C3.27322893,2.42709943 4.17817584,1.92220505 5.19370688,1.79598145 L5.19370688,1.79598145 C5.6987078,1.73377125 6.0562632,1.28297269 5.99267732,0.787995878 L5.99267732,0.787995878 C5.93369911,0.335394127 5.5411254,0.00270479134 5.08773041,0 L5.08773041,0 L5.07022126,0 Z" id="path-11"></path>
    </defs>
    <g id="1.1" stroke="none" stroke-width="1" fill="none" fill-rule="evenodd">
        <g id="1.1-About-Rett---DESKTOP" transform="translate(-733, -1380)">
            <g id="Group-75-Copy-9" transform="translate(733, 1380)">
                <rect id="Rectangle-Copy-7" fill="#FFFFFF" x="0" y="0" width="80" height="80" rx="40"></rect>
                <rect id="Rectangle" stroke="#9E3795" stroke-width="2" fill="#FFFFFF" opacity="0.3" x="1" y="1" width="78" height="78" rx="39"></rect>
                <g id="Group-22" transform="translate(21, 12)">
                    <g id="Group-6" transform="translate(5.5, 1.8617)">
                        <path d="M18,6 C18,9.31312554 15.3137914,12 11.999571,12 C8.68620862,12 6,9.31312554 6,6 C6,2.68687446 8.68620862,0 11.999571,0 C15.3137914,0 18,2.68687446 18,6" id="Fill-1" fill="#9E3795"></path>
                        <g id="Group-5" transform="translate(0, 13.0197)">
                            <mask id="mask-2" fill="white">
                                <use xlink:href="#path-1"></use>
                            </mask>
                            <g id="Clip-4"></g>
                            <path d="M20.3457593,4.00745461 C20.3457593,4.00745461 19.67521,0 15.4669637,0 L13.9772294,0 C11.8059669,0 10.4293983,0.408941363 9.60599071,0.805930368 C8.98949067,1.10303182 8.50811392,1.62039813 8.22351047,2.24789688 L0.276571526,18.4851741 C-0.280812077,19.7137056 0.00885849214,21.2376312 1.10420172,22.0128269 C2.52637443,23.0193861 4.44343622,22.4396968 5.13340956,20.9191862 L9.10181191,13.4498168 L9.10181191,13.8433908 C9.10181191,13.8433908 8.02842621,19.9629977 8.02842621,19.9877561 C8.02842621,20.0125146 8.02504813,20.037273 8.02504813,20.0620315 L6.42805965,24.2334041 C6.12318771,25.0282359 5.98553085,25.8785607 6.02353428,26.7297393 L6.19159388,30.5280277 L6.19159388,36.4333458 C6.19159388,38.4840288 7.83587551,40.1462602 9.86441402,40.1462602 L10.2655613,40.1462602 C12.4097991,40.1462602 14.1638684,38.3730426 14.1638684,36.2053973 C14.1638684,36.2053973 14.1697801,26.7126645 14.1807589,26.7041271 L17.0664858,16.4635182 L15.803083,16.4635182 L15.803083,37.0719432 C15.803083,39.2327586 17.5512406,41 19.6878778,41 L20.1152052,41 C22.2518423,41 24,39.2327586 24,37.0719432 L24,33.6954023 L24,26.7681576 L24,21.0182201 C24,19.3201316 23.8800781,17.5144719 23.6900609,15.9111486" id="Fill-3" fill="#9E3795" mask="url(#mask-2)"></path>
                        </g>
                    </g>
                    <g id="Group-9" transform="translate(2.375, 34.4468)">
                        <mask id="mask-4" fill="white">
                            <use xlink:href="#path-3"></use>
                        </mask>
                        <g id="Clip-8"></g>
                        <path d="M0,0.838105881 C0,3.68431345 2.31517184,6 5.16177703,6 L5.16177703,6 C5.62531433,6 6,5.62452857 6,5.16189412 L6,5.16189412 C6,4.69842157 5.62531433,4.32378824 5.16177703,4.32378824 L5.16177703,4.32378824 C3.24056999,4.32378824 1.67644593,2.75988267 1.67644593,0.838105881 L1.67644593,0.838105881 C1.67644593,0.374633329 1.30176027,0 0.838222967,0 L0.838222967,0 C0.375523889,0 0,0.374633329 0,0.838105881" id="Fill-7" fill="#D3A5CF" mask="url(#mask-4)"></path>
                    </g>
                    <g id="Group-12" transform="translate(0, 34.5638)">
                        <mask id="mask-6" fill="white">
                            <use xlink:href="#path-5"></use>
                        </mask>
                        <g id="Clip-11"></g>
                        <path d="M0,0.881744109 C0,4.80687073 3.19348089,8 7.11815879,8 L7.11815879,8 C7.60532981,8 8,7.60625413 8,7.11825589 L8,7.11825589 C8,6.63201938 7.60532981,6.23827351 7.11815879,6.23827351 L7.11815879,6.23827351 C4.16518005,6.23827351 1.76192049,3.83615944 1.76192049,0.881744109 L1.76192049,0.881744109 C1.76192049,0.394626734 1.36813126,0 0.880960247,0 L0.880960247,0 C0.394670191,0 0,0.394626734 0,0.881744109" id="Fill-10" fill="#D3A5CF" mask="url(#mask-6)"></path>
                    </g>
                    <g id="Group-15" transform="translate(25.125, 13.383)">
                        <mask id="mask-8" fill="white">
                            <use xlink:href="#path-7"></use>
                        </mask>
                        <g id="Clip-14"></g>
                        <path d="M0,0.837501747 C0,1.30026547 0.374633329,1.67584183 0.838105881,1.67584183 L0.838105881,1.67584183 C2.75988267,1.67584183 4.32295013,3.23934609 4.32295013,5.16165991 L4.32295013,5.16165991 C4.32295013,5.62442364 4.69758346,6 5.16105601,6 L5.16105601,6 C5.62452857,6 6,5.62442364 6,5.16165991 L6,5.16165991 C6,2.31549532 3.68431345,0 0.838105881,0 L0.838105881,0 C0.374633329,0 0,0.374738019 0,0.837501747" id="Fill-13" fill="#D3A5CF" mask="url(#mask-8)"></path>
                    </g>
                    <g id="Group-18" transform="translate(25.25, 10.0319)">
                        <mask id="mask-10" fill="white">
                            <use xlink:href="#path-9"></use>
                        </mask>
                        <g id="Clip-17"></g>
                        <path d="M0,0.880960247 C0,1.36813126 0.39378923,1.76192049 0.880960247,1.76192049 L0.880960247,1.76192049 C3.83481995,1.76192049 6.23807951,4.16518005 6.23807951,7.11903975 L6.23807951,7.11903975 C6.23807951,7.60621077 6.63186874,8 7.11903975,8 L7.11903975,8 C7.60532981,8 8,7.60621077 8,7.11903975 L8,7.11903975 C8,3.19348089 4.80651911,0 0.880960247,0 L0.880960247,0 C0.39378923,0 0,0.394670191 0,0.880960247" id="Fill-16" fill="#D3A5CF" mask="url(#mask-10)"></path>
                    </g>
                    <g id="Group-21" transform="translate(8.625, 0)">
                        <mask id="mask-12" fill="white">
                            <use xlink:href="#path-11"></use>
                        </mask>
                        <g id="Clip-20"></g>
                        <path d="M5.07022126,0 C5.03428141,0 4.99834156,0.00270479134 4.96240172,0.00721277692 L4.96240172,0.00721277692 C3.45753584,0.19384338 2.11762464,0.941267388 1.18963937,2.11244204 L1.18963937,2.11244204 C0.261654104,3.28361669 -0.144742621,4.73969603 0.0460150254,6.21200412 L0.0460150254,6.21200412 C0.104993235,6.66731066 0.501253081,7 0.958334205,7 L0.958334205,7 C0.997038655,7 1.03574311,6.99819681 1.07629062,6.99368882 L1.07629062,6.99368882 C1.58129154,6.93057702 1.93884694,6.47887687 1.87433952,5.98570325 L1.87433952,5.98570325 C1.74532469,4.99124163 2.01994198,4.00850077 2.64566392,3.21689851 L2.64566392,3.21689851 C3.27322893,2.42709943 4.17817584,1.92220505 5.19370688,1.79598145 L5.19370688,1.79598145 C5.6987078,1.73377125 6.0562632,1.28297269 5.99267732,0.787995878 L5.99267732,0.787995878 C5.93369911,0.335394127 5.5411254,0.00270479134 5.08773041,0 L5.08773041,0 L5.07022126,0 Z" id="Fill-19" fill="#D3A5CF" mask="url(#mask-12)"></path>
                    </g>
                </g>
            </g>
        </g>
    </g>
</svg>