<?xml version="1.0" encoding="UTF-8"?>
<svg width="80px" height="80px" viewBox="0 0 80 80" version="1.1" xmlns="http://www.w3.org/2000/svg" xmlns:xlink="http://www.w3.org/1999/xlink">
    <title>Group 8</title>
    <g id="1.1" stroke="none" stroke-width="1" fill="none" fill-rule="evenodd">
        <g id="1.1-About-Rett---DESKTOP" transform="translate(-312, -1280)">
            <g id="Group-8" transform="translate(312, 1280)">
                <rect id="Rectangle-Copy-9" fill="#FFFFFF" x="0" y="0" width="80" height="80" rx="40"></rect>
                <g id="Group-29">
                    <rect id="Rectangle" stroke="#9E3795" stroke-width="2" fill="#FFFFFF" opacity="0.3" x="1" y="1" width="78" height="78" rx="39"></rect>
                    <g id="Group-76" transform="translate(20, 20.8)">
                        <path d="M32.0939053,44.5054599 L32.0939053,37.0272212 L35.8428103,37.0272212 C37.6943983,37.0272212 39.2,35.4204241 39.2,33.446059 L39.2,3.58291247 C39.2,1.60679709 37.6943983,0 35.8428103,0 L3.36236656,0 C1.50905289,0 0,1.60679709 0,3.58291247 L0,33.446059 C0,35.4204241 1.50905289,37.0272212 3.36236656,37.0272212 L19.3200185,37.0272212 L32.0939053,44.5054599 Z" id="Fill-21-Copy" fill="#9E3795" transform="translate(19.6, 22.2527) scale(-1, 1) translate(-19.6, -22.2527)"></path>
                        <g id="Group-63" transform="translate(20.2448, 18.227) rotate(-270) translate(-20.2448, -18.227)translate(13.2944, 11.0784)" stroke="#FFFFFF" stroke-linecap="round" stroke-width="2.4">
                            <line x1="13.9007092" y1="-1.15926941e-13" x2="0.000188264656" y2="14.2971786" id="Stroke-23"></line>
                            <line x1="0" y1="-1.15926906e-13" x2="13.900521" y2="14.2971786" id="Stroke-25"></line>
                        </g>
                    </g>
                </g>
            </g>
        </g>
    </g>
</svg>