<?xml version="1.0" encoding="UTF-8"?>
<svg width="80px" height="73px" viewBox="0 0 80 73" version="1.1" xmlns="http://www.w3.org/2000/svg" xmlns:xlink="http://www.w3.org/1999/xlink">
    <title>Group 67</title>
    <defs>
        <polygon id="path-1" points="0 0 80 0 80 73 0 73"></polygon>
    </defs>
    <g id="1.1" stroke="none" stroke-width="1" fill="none" fill-rule="evenodd">
        <g id="1.1-About-Rett---DESKTOP" transform="translate(-400, -2229)">
            <g id="Group-67" transform="translate(400, 2229)">
                <g id="Group-3">
                    <mask id="mask-2" fill="white">
                        <use xlink:href="#path-1"></use>
                    </mask>
                    <g id="Clip-2"></g>
                    <path d="M77.0605681,30.2910569 L73.277141,20.4389831 C74.2839174,19.8073082 74.9547728,18.6964993 74.9547728,17.4277716 C74.9547728,15.4569657 73.34324,13.8611556 71.3558308,13.8611556 C70.4797726,13.8611556 69.6772125,14.171615 69.0532183,14.6869286 L57.2343246,5.28367635 C57.3758948,4.96001634 57.454819,4.6035992 57.454819,4.22860338 C57.454819,2.75746596 56.2517188,1.56549752 54.7674512,1.56549752 C53.569777,1.56549752 52.5560947,2.34237933 52.2093217,3.41603097 L32.2276962,2.60492529 C31.9519549,1.12254288 30.6447734,0 29.0692498,0 C27.2944426,0 25.8555564,1.42566857 25.8555564,3.18575323 C25.8555564,3.50696868 25.9043908,3.81693914 25.9936737,4.10881985 L11.9239615,12.0658692 C11.4380846,11.587224 10.768709,11.2909431 10.0292883,11.2909431 C8.54502069,11.2909431 7.34241372,12.4824226 7.34241372,13.9530711 C7.34241372,14.6395041 7.60680968,15.2638453 8.03743965,15.7356457 L4.71571886,20.9098057 C4.33342993,20.7670433 3.9205579,20.6853949 3.48795482,20.6853949 C1.56072536,20.6844171 0,22.2323138 0,24.1420056 C0,25.9548928 1.40731652,27.438742 3.19889506,27.5844379 L4.56132346,38.4690947 C3.58858313,38.869514 2.90342272,39.8199597 2.90342272,40.9297908 C2.90342272,42.4009283 4.10602968,43.5928967 5.58980398,43.5928967 C6.47079498,43.5928967 7.25017111,43.1709653 7.7399942,42.5221785 L16.6929542,45.9851451 C16.6677971,46.1494197 16.6500392,46.3161388 16.6500392,46.4877471 C16.6500392,48.2986786 18.1303605,49.7649269 19.9574549,49.7649269 C20.7782663,49.7649269 21.5270593,49.4676682 22.1051788,48.9777779 L26.4548868,52.2251341 C26.3340342,52.5277709 26.2659621,52.8568089 26.2659621,53.20247 C26.2659621,54.6731185 27.4685691,55.8660648 28.9523434,55.8660648 C30.4065211,55.8660648 31.5864374,54.7215209 31.6347784,53.2929188 L40.1837453,51.2595321 C40.7697572,52.5253263 42.0567144,53.4058576 43.5538072,53.4058576 C43.7565436,53.4058576 43.953854,53.3853233 44.1477115,53.3545218 L49.6931206,68.1793237 C49.0173325,68.6623691 48.5758504,69.4475625 48.5758504,70.3368941 C48.5758504,71.8085205 49.7784574,73 51.2622317,73 C52.7464993,73 53.9491062,71.8085205 53.9491062,70.3368941 C53.9491062,69.9100736 53.8455183,69.5081876 53.6649793,69.1503037 L55.5379483,67.4836013 C55.9562464,67.7500586 56.4519888,67.9060217 56.9857135,67.9060217 C58.4704743,67.9060217 59.6730813,66.7135643 59.6730813,65.2429158 C59.6730813,63.8803169 58.6406546,62.7592408 57.3088093,62.6008332 L56.7252637,58.7408697 C57.8213231,58.2954705 58.5942866,57.2281747 58.5942866,55.9814481 C58.5942866,55.9697142 58.5928068,55.9584692 58.5928068,55.9472243 L65.9899742,54.0634448 C66.4536536,54.8628165 67.3218194,55.4025758 68.3187303,55.4025758 C69.4399467,55.4025758 70.3998619,54.7215209 70.8023751,53.7544521 L71.0465468,53.7842758 L70.8438103,53.6420023 C70.946905,53.3598998 71.0056048,53.0562852 71.0056048,52.7389811 C71.0056048,51.7504002 70.4605348,50.8894254 69.6525487,50.4298478 L70.7333165,46.2472021 C70.7456484,46.2476911 70.7579803,46.2491578 70.7708055,46.2491578 C72.4449843,46.2491578 73.8019867,44.9046487 73.8019867,43.2447911 C73.8019867,42.4312408 73.4739581,41.6939609 72.9436864,41.1527349 L76.5386821,35.4901514 C76.7838403,35.5629994 77.0437967,35.6035791 77.3131255,35.6035791 C78.797393,35.6035791 80,34.4111218 80,32.9399843 C80,31.4698247 78.797393,30.2783452 77.3131255,30.2783452 C77.2277887,30.2783452 77.1439318,30.2832343 77.0605681,30.2910569 Z" id="Path" stroke="#9E3795" fill="#FFFFFF" opacity="0.400995164" mask="url(#mask-2)"></path>
                    <path d="M68.2679229,50.0792976 C67.6424489,50.0910315 67.0687688,50.3129977 66.6179146,50.6787042 L59.0061721,45.3412475 C59.107787,45.1031471 59.1778322,44.8489127 59.2207472,44.5863667 L67.8703424,44.1130995 C68.1046485,44.8846033 68.6433059,45.5245896 69.3481974,45.8971409 L68.2679229,50.0792976 Z M55.5853028,52.9985935 C54.6860606,52.9985935 53.8820207,53.3911902 53.3305381,54.0101533 L47.3554855,50.9050706 L64.4770966,52.9858818 L58.2386346,54.5743582 C57.7310536,53.6366242 56.7336494,52.9985935 55.5853028,52.9985935 L55.5853028,52.9985935 Z M45.4879425,52.862187 C45.8529667,52.6407097 46.1770491,52.3605629 46.4439114,52.0310359 L52.6670818,55.2647025 C52.6093685,55.4944914 52.5758258,55.7340584 52.5758258,55.9814481 C52.5758258,57.5366785 53.7774462,58.8132288 55.3115346,58.9506131 L55.8955735,62.8105766 C54.9558826,63.2251743 54.2998255,64.1570413 54.2998255,65.2429158 C54.2998255,65.6697363 54.4034135,66.0716223 54.5834592,66.4290173 L52.7104901,68.0962086 C52.2921921,67.8307291 51.7959564,67.6742772 51.2622317,67.6742772 C51.1847874,67.6742772 51.1088229,67.6796552 51.0333516,67.6860111 L45.4879425,52.862187 Z M8.2628668,41.2030929 C8.27174577,41.113133 8.27667853,41.0221953 8.27667853,40.9297908 C8.27667853,39.5901709 7.27878111,38.4857177 5.9804786,38.2974865 L4.61706365,27.410385 C4.72163817,27.3746944 4.82374631,27.3350925 4.92338807,27.2901126 L17.4777563,44.3238207 C17.3815675,44.4318704 17.2908047,44.5443202 17.2094142,44.6641038 L8.2628668,41.2030929 Z M9.24152644,16.498838 C9.49063084,16.5746194 9.75502679,16.6156881 10.0292883,16.6156881 C10.6710404,16.6156881 11.2595187,16.3922551 11.7217183,16.0197038 L17.021476,19.7672174 C16.7570801,20.3045322 16.6026847,20.9034498 16.5883796,21.5380581 L6.75985473,22.9549263 C6.57832915,22.4650361 6.29173578,22.0264816 5.92227203,21.6690867 L9.24152644,16.498838 Z M27.1558321,5.74129836 L21.9453573,17.4967082 C21.6079565,17.4126153 21.2562507,17.3627462 20.8927063,17.3627462 C19.7039111,17.3622573 18.6275828,17.8394358 17.8482066,18.6109396 L12.5504221,14.8653817 C12.6554899,14.5803457 12.7156695,14.2742866 12.7156695,13.9530711 C12.7156695,13.7262158 12.6840999,13.5076719 12.6303328,13.2974396 L26.7049778,5.33794563 C26.8421085,5.48608609 26.993051,5.62102591 27.1558321,5.74129836 L27.1558321,5.74129836 Z M75.7252699,30.7965923 C75.4110531,31.0249144 75.1476437,31.3182619 74.9582257,31.6585449 L65.2599256,29.3782575 L70.2217892,20.8095787 C70.5789211,20.9269176 70.9592369,20.9929208 71.3558308,20.9929208 C71.5556076,20.9929208 71.7499584,20.9723865 71.9408562,20.941585 L75.7252699,30.7965923 Z M47.2494312,49.4647347 C47.2341396,49.2545023 47.2010901,49.0496481 47.1517625,48.8501718 L53.2836769,46.0487037 C53.8913929,46.8431864 54.8518014,47.358989 55.9365154,47.358989 C56.800735,47.358989 57.5855371,47.0299509 58.1774684,46.4955696 L65.5904206,51.6936863 L47.2494312,49.4647347 Z M6.28433664,26.2013047 L19.773463,32.3718681 L19.3635506,43.2663032 C19.1080336,43.312261 18.8623822,43.3860868 18.6310357,43.4868027 L6.07617415,26.4530945 C6.14967228,26.372424 6.2192242,26.2883311 6.28433664,26.2013047 L6.28433664,26.2013047 Z M28.5177672,6.32163739 L29.1358421,18.1190937 L24.6879721,19.6117433 C24.3476116,18.9849576 23.8528558,18.4535098 23.2550052,18.0643355 L28.4635068,6.31332588 C28.4812648,6.31674826 28.499516,6.318215 28.5177672,6.32163739 L28.5177672,6.32163739 Z M52.3400398,5.36385799 L45.8031459,10.9355037 C45.0656982,10.3287635 44.1195948,9.9640348 43.0866748,9.9640348 C41.9920953,9.96305698 40.9971575,10.376188 40.2424452,11.0494203 L31.9677397,4.5561747 C32.0501168,4.38554427 32.1172024,4.20660233 32.1680098,4.0203267 L52.1530882,4.83143238 C52.1964965,5.01721909 52.2596358,5.19518321 52.3400398,5.36385799 L52.3400398,5.36385799 Z M67.9354548,16.3223406 L54.3008121,14.7583098 L55.190682,6.85455191 C55.6144061,6.78805982 56.0040942,6.62476308 56.3375488,6.38617383 L68.1594021,15.7928485 C68.0711057,15.9620122 67.9956345,16.1385096 67.9354548,16.3223406 L67.9354548,16.3223406 Z M63.8096941,29.0374855 L57.7384527,27.6103502 C57.7581838,27.42163 57.7690358,27.2299764 57.7690358,27.0358781 C57.7690358,26.3905138 57.6516361,25.7739952 57.44594,25.1980564 L68.5342919,19.6366778 C68.6689563,19.8058415 68.8194055,19.9613156 68.9826798,20.1035892 L63.8096941,29.0374855 Z M45.506687,46.6075306 L47.1818524,42.2097635 L52.6167677,43.8153518 C52.6113416,43.8950446 52.6049291,43.9752262 52.6049291,44.0563857 C52.6049291,44.300353 52.6335391,44.5374755 52.6838532,44.7662865 L46.5548985,47.5741104 C46.2722514,47.1883585 45.9165994,46.8602983 45.506687,46.6075306 L45.506687,46.6075306 Z M26.4691918,35.4349043 C26.3601778,35.8206562 26.2975318,36.2264535 26.2975318,36.6464293 C26.2975318,37.5572731 26.5732731,38.4030915 27.0433651,39.1105478 L21.8575542,43.8075293 C21.5388979,43.585563 21.1792997,43.4198217 20.792078,43.3195947 L21.1797929,33.0152768 L26.4691918,35.4349043 Z M21.4486284,25.8654218 C23.0793989,25.6566562 24.4211097,24.5463362 24.952368,23.0531977 L29.4347673,23.8266571 L29.8762494,32.260885 C28.7096516,32.506319 27.7083012,33.1976412 27.064576,34.147598 L21.2375062,31.4815586 L21.4486284,25.8654218 Z M29.3588028,22.3755651 L25.1999926,21.6578417 C25.1999926,21.6500191 25.2009792,21.6421965 25.2009792,21.6333961 C25.2009792,21.4021405 25.1777952,21.1767519 25.141786,20.9552746 L29.2127931,19.5892533 L29.3588028,22.3755651 Z M39.3407366,16.1898454 C39.6199308,16.7012477 40.0046861,17.1456691 40.4624463,17.5025752 L37.0746265,23.7073625 L30.803115,22.6249104 L30.6191231,19.1169639 L39.3407366,16.1898454 Z M52.100801,21.5199684 C51.202052,21.5356136 50.3555904,21.7610022 49.6082772,22.1506654 L46.0838199,17.179893 C46.5889346,16.683158 46.9662907,16.0612614 47.1714936,15.3665169 L52.7223288,16.0030808 L52.100801,21.5199684 Z M55.942928,40.7542713 L54.0709454,32.2305724 C55.6065137,31.6864129 56.8278652,30.496889 57.4045048,28.9876165 L63.0673137,30.3189249 L56.9368792,40.9058341 C56.6231556,40.8080517 56.2892077,40.7547602 55.942928,40.7542713 L55.942928,40.7542713 Z M50.9174318,32.4046252 C51.3298105,32.5004521 51.7569876,32.5571659 52.1989629,32.5571659 C52.3592776,32.5571659 52.5171259,32.5464098 52.674481,32.5332092 L54.5469568,41.0578859 C53.9007652,41.3527001 53.3655607,41.844057 53.0222406,42.4576421 L47.6874603,40.8833442 L50.9174318,32.4046252 Z M35.3037655,37.2297018 C35.3294159,37.038537 35.3466806,36.8444388 35.3466806,36.6464293 C35.3466806,36.2367207 35.2865009,35.8411905 35.1824196,35.4642391 L47.4684457,29.9405067 C47.985399,30.7662798 48.7115013,31.4483126 49.5791739,31.9078902 L46.3141798,40.4780358 L35.3037655,37.2297018 Z M32.3179657,32.4183148 C31.9943767,32.305376 31.6564826,32.2251944 31.3037902,32.1880371 L30.8790795,24.0760024 L36.3569099,25.0210701 L32.3179657,32.4183148 Z M46.6412218,26.7958221 C46.6377689,26.8760038 46.6288899,26.9552076 46.6288899,27.0358781 C46.6288899,27.5986163 46.7152132,28.1413091 46.8730616,28.6527115 L34.5944346,34.1725325 C34.3172135,33.7589126 33.971427,33.3956507 33.5748331,33.0930139 L37.8426573,25.2772602 L46.6412218,26.7958221 Z M43.0866748,18.4046185 C43.7412521,18.4046185 44.3583404,18.2535446 44.9127826,17.9919765 L48.4416794,22.9691048 C47.7234695,23.6213139 47.17396,24.4534428 46.8784876,25.3989994 L38.5598806,23.9635526 L41.7193136,18.1777632 C42.148957,18.3224813 42.6077037,18.4046185 43.0866748,18.4046185 L43.0866748,18.4046185 Z M43.5538072,46.0531039 C42.81192,46.0531039 42.1228134,46.2711589 41.5427208,46.6427323 L34.4346132,39.3388699 C34.6136724,39.1032141 34.7690543,38.8504464 34.8987859,38.5820335 L45.8090652,41.8044551 L44.1694157,46.1078621 C43.9686523,46.0746161 43.7639428,46.0531039 43.5538072,46.0531039 L43.5538072,46.0531039 Z M67.7726737,17.7299194 C67.7914182,17.9504189 67.8313736,18.1650515 67.8890869,18.3728392 L56.8041879,23.9322622 C56.0405966,22.8214532 54.8774517,22.0064362 53.5214359,21.678376 L54.1419772,16.1658886 L67.7726737,17.7299194 Z M53.2698652,6.43946528 C53.4257404,6.54311471 53.5934542,6.62916329 53.770047,6.69956668 L52.8806704,14.5950131 L47.3327948,13.9589381 C47.2948126,13.2490372 47.0807308,12.5865609 46.7319846,12.0120889 L53.2698652,6.43946528 Z M31.0813227,5.66845042 L39.3520819,12.1577848 C39.0196139,12.759147 38.8297026,13.4494913 38.8297026,14.1833488 C38.8297026,14.4097153 38.8528866,14.6297259 38.8869226,14.8463141 L30.5426653,17.6472932 L29.945308,6.24878944 C30.3650859,6.13096155 30.7503345,5.93246311 31.0813227,5.66845042 L31.0813227,5.66845042 Z M23.251059,46.2252011 C23.2111036,45.7279772 23.0601612,45.2630215 22.8214156,44.8538018 L28.0087063,40.1558425 C28.7811766,40.7650274 29.7578631,41.1317117 30.8218595,41.1317117 C31.7837478,41.1317117 32.674111,40.8320084 33.4076125,40.3245173 L40.513747,47.6259351 C40.3184097,47.9026595 40.1625345,48.207252 40.049081,48.5328676 L23.251059,46.2252011 Z M74.6311837,33.0377668 C74.637103,33.1971523 74.6553542,33.3536042 74.6884037,33.5051671 L58.4847794,41.9315724 C58.3890838,41.8186336 58.284016,41.7140063 58.1740155,41.615246 L64.5180385,30.6596969 L74.6311837,33.0377668 Z M16.7911161,22.9407478 C17.2612082,24.3923288 18.4924251,25.5055823 20.020101,25.8170195 L19.8311763,30.8381499 L6.88416029,24.915465 C6.92608875,24.7340785 6.95223238,24.547314 6.96407101,24.3566382 L16.7911161,22.9407478 Z M28.9523434,50.5393641 C28.3357483,50.5393641 27.7689742,50.7476408 27.3161468,51.0937908 L22.9649589,47.8459457 C22.9975151,47.7745645 23.0271117,47.7022055 23.0547351,47.6283797 L39.7067474,49.9160008 L31.3037902,51.9146747 C30.8460301,51.0947686 29.9655323,50.5393641 28.9523434,50.5393641 L28.9523434,50.5393641 Z M70.7708055,40.2409133 C69.2855513,40.2409133 68.0528545,41.3008754 67.7933913,42.6986759 L59.1798053,43.1699875 L75.2941467,34.7900289 L71.7336803,40.3983431 C71.4308088,40.2976271 71.107713,40.2409133 70.7708055,40.2409133 L70.7708055,40.2409133 Z M77.0605681,30.2910569 L73.277141,20.4389831 C74.2839174,19.8073082 74.9547728,18.6964993 74.9547728,17.4277716 C74.9547728,15.4569657 73.34324,13.8611556 71.3558308,13.8611556 C70.4797726,13.8611556 69.6772125,14.171615 69.0532183,14.6869286 L57.2343246,5.28367635 C57.3758948,4.96001634 57.454819,4.6035992 57.454819,4.22860338 C57.454819,2.75746596 56.2517188,1.56549752 54.7674512,1.56549752 C53.569777,1.56549752 52.5560947,2.34237933 52.2093217,3.41603097 L32.2276962,2.60492529 C31.9519549,1.12254288 30.6447734,0 29.0692498,0 C27.2944426,0 25.8555564,1.42566857 25.8555564,3.18575323 C25.8555564,3.50696868 25.9043908,3.81693914 25.9936737,4.10881985 L11.9239615,12.0658692 C11.4380846,11.587224 10.768709,11.2909431 10.0292883,11.2909431 C8.54502069,11.2909431 7.34241372,12.4824226 7.34241372,13.9530711 C7.34241372,14.6395041 7.60680968,15.2638453 8.03743965,15.7356457 L4.71571886,20.9098057 C4.33342993,20.7670433 3.9205579,20.6853949 3.48795482,20.6853949 C1.56072536,20.6844171 0,22.2323138 0,24.1420056 C0,25.9548928 1.40731652,27.438742 3.19889506,27.5844379 L4.56132346,38.4690947 C3.58858313,38.869514 2.90342272,39.8199597 2.90342272,40.9297908 C2.90342272,42.4009283 4.10602968,43.5928967 5.58980398,43.5928967 C6.47079498,43.5928967 7.25017111,43.1709653 7.7399942,42.5221785 L16.6929542,45.9851451 C16.6677971,46.1494197 16.6500392,46.3161388 16.6500392,46.4877471 C16.6500392,48.2986786 18.1303605,49.7649269 19.9574549,49.7649269 C20.7782663,49.7649269 21.5270593,49.4676682 22.1051788,48.9777779 L26.4548868,52.2251341 C26.3340342,52.5277709 26.2659621,52.8568089 26.2659621,53.20247 C26.2659621,54.6731185 27.4685691,55.8660648 28.9523434,55.8660648 C30.4065211,55.8660648 31.5864374,54.7215209 31.6347784,53.2929188 L40.1837453,51.2595321 C40.7697572,52.5253263 42.0567144,53.4058576 43.5538072,53.4058576 C43.7565436,53.4058576 43.953854,53.3853233 44.1477115,53.3545218 L49.6931206,68.1793237 C49.0173325,68.6623691 48.5758504,69.4475625 48.5758504,70.3368941 C48.5758504,71.8085205 49.7784574,73 51.2622317,73 C52.7464993,73 53.9491062,71.8085205 53.9491062,70.3368941 C53.9491062,69.9100736 53.8455183,69.5081876 53.6649793,69.1503037 L55.5379483,67.4836013 C55.9562464,67.7500586 56.4519888,67.9060217 56.9857135,67.9060217 C58.4704743,67.9060217 59.6730813,66.7135643 59.6730813,65.2429158 C59.6730813,63.8803169 58.6406546,62.7592408 57.3088093,62.6008332 L56.7252637,58.7408697 C57.8213231,58.2954705 58.5942866,57.2281747 58.5942866,55.9814481 C58.5942866,55.9697142 58.5928068,55.9584692 58.5928068,55.9472243 L65.9899742,54.0634448 C66.4536536,54.8628165 67.3218194,55.4025758 68.3187303,55.4025758 C69.4399467,55.4025758 70.3998619,54.7215209 70.8023751,53.7544521 L71.0465468,53.7842758 L70.8438103,53.6420023 C70.946905,53.3598998 71.0056048,53.0562852 71.0056048,52.7389811 C71.0056048,51.7504002 70.4605348,50.8894254 69.6525487,50.4298478 L70.7333165,46.2472021 C70.7456484,46.2476911 70.7579803,46.2491578 70.7708055,46.2491578 C72.4449843,46.2491578 73.8019867,44.9046487 73.8019867,43.2447911 C73.8019867,42.4312408 73.4739581,41.6939609 72.9436864,41.1527349 L76.5386821,35.4901514 C76.7838403,35.5629994 77.0437967,35.6035791 77.3131255,35.6035791 C78.797393,35.6035791 80,34.4111218 80,32.9399843 C80,31.4698247 78.797393,30.2783452 77.3131255,30.2783452 C77.2277887,30.2783452 77.1439318,30.2832343 77.0605681,30.2910569 Z" id="Fill-1" fill="#9E3795" opacity="0.501209077" mask="url(#mask-2)"></path>
                </g>
                <circle id="Oval" fill="#9E3795" cx="11" cy="14" r="3"></circle>
                <circle id="Oval-Copy-17" fill="#9E3795" cx="21.5" cy="21.5" r="4.5"></circle>
                <circle id="Oval-Copy-24" fill="#9E3795" cx="31.5" cy="36.5" r="4.5"></circle>
                <circle id="Oval-Copy-25" fill="#9E3795" cx="20.5" cy="46.5" r="3.5"></circle>
                <circle id="Oval-Copy-27" fill="#9E3795" cx="29.5" cy="53.5" r="2.5"></circle>
                <circle id="Oval-Copy-28" fill="#9E3795" cx="44" cy="50" r="4"></circle>
                <circle id="Oval-Copy-29" fill="#9E3795" cx="56.5" cy="44.5" r="3.5"></circle>
                <circle id="Oval-Copy-33" fill="#9E3795" cx="56" cy="56" r="3"></circle>
                <circle id="Oval-Copy-34" fill="#9E3795" cx="57" cy="65" r="3"></circle>
                <circle id="Oval-Copy-35" fill="#9E3795" cx="51" cy="70" r="3"></circle>
                <circle id="Oval-Copy-30" fill="#9E3795" cx="71" cy="43" r="3"></circle>
                <circle id="Oval-Copy-32" fill="#9E3795" cx="68.5" cy="52.5" r="2.5"></circle>
                <circle id="Oval-Copy-18" fill="#9E3795" cx="4.5" cy="23.5" r="3.5"></circle>
                <circle id="Oval-Copy-26" fill="#9E3795" cx="6" cy="41" r="3"></circle>
                <circle id="Oval-Copy-19" fill="#9E3795" cx="29" cy="3" r="3"></circle>
                <circle id="Oval-Copy-20" fill="#9E3795" cx="55" cy="4" r="3"></circle>
                <circle id="Oval-Copy-21" fill="#9E3795" cx="71.5" cy="17.5" r="3.5"></circle>
                <circle id="Oval-Copy-31" fill="#9E3795" cx="77" cy="33" r="3"></circle>
                <circle id="Oval-Copy-22" fill="#9E3795" cx="43.5" cy="14.5" r="4.5"></circle>
                <circle id="Oval-Copy-23" fill="#9E3795" cx="52.5" cy="26.5" r="5.5"></circle>
            </g>
        </g>
    </g>
</svg>