<?xml version="1.0" encoding="UTF-8"?>
<svg width="62px" height="48px" viewBox="0 0 62 48" version="1.1" xmlns="http://www.w3.org/2000/svg" xmlns:xlink="http://www.w3.org/1999/xlink">
    <title>Fill 1</title>
    <g id="0.0" stroke="none" stroke-width="1" fill="none" fill-rule="evenodd">
        <g id="Group-5" transform="translate(-945, -189)" fill="#8BC43F">
            <path d="M993.986,236.399 C989.542,236.399 985.924,235.004 983.134,232.212 C980.341,229.422 978.947,225.169 978.947,219.458 C978.947,214.384 979.866,210.1 981.708,206.609 C983.545,203.12 985.8,200.202 988.465,197.852 C991.129,195.505 993.825,193.602 996.554,192.141 C999.282,190.684 1001.6,189.637 1003.504,189 L1005.978,193.95 C1003.693,194.967 1001.344,196.267 998.934,197.852 C996.522,199.441 994.524,201.564 992.939,204.229 C991.349,206.894 990.559,210.639 990.559,215.46 C991.445,214.954 992.302,214.669 993.129,214.604 C993.952,214.541 994.809,214.508 995.698,214.508 C999.25,214.508 1001.947,215.525 1003.789,217.554 C1005.626,219.586 1006.549,222.06 1006.549,224.978 C1006.549,228.024 1005.47,230.689 1003.313,232.973 C1001.154,235.257 998.045,236.399 993.986,236.399 M960.038,236.399 C955.594,236.399 951.978,235.004 949.188,232.212 C946.395,229.422 945,225.169 945,219.458 C945,214.384 945.92,210.1 947.76,206.609 C949.599,203.12 951.853,200.202 954.517,197.852 C957.183,195.505 959.877,193.602 962.608,192.141 C965.335,190.684 967.652,189.637 969.556,189 L972.03,193.95 C969.747,194.967 967.397,196.267 964.988,197.852 C962.576,199.441 960.576,201.564 958.991,204.229 C957.403,206.894 956.612,210.639 956.612,215.46 C957.498,214.954 958.355,214.669 959.182,214.604 C960.006,214.541 960.863,214.508 961.752,214.508 C965.302,214.508 968.001,215.525 969.841,217.554 C971.68,219.586 972.602,222.06 972.602,224.978 C972.602,228.024 971.522,230.689 969.366,232.973 C967.206,235.257 964.099,236.399 960.038,236.399" id="Fill-1" transform="translate(975.7745, 212.6995) scale(-1, -1) translate(-975.7745, -212.6995)"></path>
        </g>
    </g>
</svg>