<?xml version="1.0" encoding="UTF-8"?>
<svg width="62px" height="48px" viewBox="0 0 62 48" version="1.1" xmlns="http://www.w3.org/2000/svg" xmlns:xlink="http://www.w3.org/1999/xlink">
    <title>Fill 1</title>
    <g id="0.0" stroke="none" stroke-width="1" fill="none" fill-rule="evenodd">
        <g id="Group-5" fill="#8BC43F">
            <path d="M48.986,47.399 C44.542,47.399 40.924,46.004 38.134,43.212 C35.341,40.422 33.947,36.169 33.947,30.458 C33.947,25.384 34.866,21.1 36.708,17.609 C38.545,14.12 40.8,11.202 43.465,8.852 C46.129,6.505 48.825,4.602 51.554,3.141 C54.282,1.684 56.6,0.637 58.504,0 L60.978,4.95 C58.693,5.967 56.344,7.267 53.934,8.852 C51.522,10.441 49.524,12.564 47.939,15.229 C46.349,17.894 45.559,21.639 45.559,26.46 C46.445,25.954 47.302,25.669 48.129,25.604 C48.952,25.541 49.809,25.508 50.698,25.508 C54.25,25.508 56.947,26.525 58.789,28.554 C60.626,30.586 61.549,33.06 61.549,35.978 C61.549,39.024 60.47,41.689 58.313,43.973 C56.154,46.257 53.045,47.399 48.986,47.399 M15.038,47.399 C10.594,47.399 6.978,46.004 4.188,43.212 C1.395,40.422 0,36.169 0,30.458 C0,25.384 0.92,21.1 2.76,17.609 C4.599,14.12 6.853,11.202 9.517,8.852 C12.183,6.505 14.877,4.602 17.608,3.141 C20.335,1.684 22.652,0.637 24.556,0 L27.03,4.95 C24.747,5.967 22.397,7.267 19.988,8.852 C17.576,10.441 15.576,12.564 13.991,15.229 C12.403,17.894 11.612,21.639 11.612,26.46 C12.498,25.954 13.355,25.669 14.182,25.604 C15.006,25.541 15.863,25.508 16.752,25.508 C20.302,25.508 23.001,26.525 24.841,28.554 C26.68,30.586 27.602,33.06 27.602,35.978 C27.602,39.024 26.522,41.689 24.366,43.973 C22.206,46.257 19.099,47.399 15.038,47.399" id="Fill-1"></path>
        </g>
    </g>
</svg>