<?xml version="1.0" encoding="UTF-8"?>
<svg width="100px" height="100px" viewBox="0 0 100 100" version="1.1" xmlns="http://www.w3.org/2000/svg" xmlns:xlink="http://www.w3.org/1999/xlink">
    <title>Group 111</title>
    <g id="2.0" stroke="none" stroke-width="1" fill="none" fill-rule="evenodd">
        <g id="2.0.2-Diagnosis-and-Genetic-Testing---DESKTOP" transform="translate(-1098, -4892)">
            <g id="Group-18" transform="translate(1035, 4892)">
                <g id="Group-111" transform="translate(63, 0)">
                    <circle id="Oval-Copy-8" stroke="#E2C3DF" stroke-width="2" fill="#FFFFFF" cx="50" cy="50" r="49"></circle>
                    <g id="noun-fork-and-spoon-4927798" transform="translate(20.9677, 21.7742)" fill="#9E3795" fill-rule="nonzero">
                        <path d="M31.6338108,30.8401238 L51.6389225,49.4633504 C55.0494004,52.8504477 49.939661,57.9250296 46.5291831,54.5500605 L27.8860259,34.8014612 L24.1504529,30.8279956 L20.9689171,27.4647717 L20.8243018,27.3211479 C16.4858439,30.3731229 11.4120976,29.8226286 6.48360942,24.927417 C0.831530675,19.3140861 -2.43433192,10.1341599 2.2174591,5.45457555 C6.86925012,0.77499119 16.1725108,4.07821219 21.8131489,9.69147927 C26.7541704,14.5866909 27.3085289,19.6251434 24.2234033,23.9338591 L24.3680186,24.0774829 L31.6338108,30.8401238 Z" id="Path"></path>
                        <path d="M35.0320104,27.4328843 L31.8504746,30.8080449 L28.1026897,34.7693823 L9.45953245,54.5179816 C6.06107372,57.8931422 0.93944377,52.8184326 4.34979309,49.4312715 L24.3671167,30.7959167 L31.6105418,24.045404 C30.4810002,22.9230953 29.8462999,21.4013208 29.8462999,19.8145006 C29.8462999,18.2276804 30.4810002,16.7059059 31.6105418,15.5835971 L46.9641838,0.347340276 C47.191654,0.123427495 47.4994595,-0.00149334253 47.819792,0 C48.1358888,0.00149601248 48.4389253,0.126172306 48.663381,0.347340276 C48.8916032,0.571999902 49.0198995,0.877950629 49.0198995,1.19708284 C49.0198995,1.51621504 48.8916032,1.82219768 48.663381,2.04682539 L36.7329431,13.8839844 C36.5074846,14.1098951 36.3817015,14.4155905 36.3834562,14.7337269 C36.3816987,15.0518952 36.5074846,15.3575906 36.7329431,15.5834695 C36.9591535,15.8101271 37.2672161,15.9375438 37.5885512,15.9375438 C37.9098864,15.9375438 38.2179811,15.8101271 38.4441594,15.5834695 L50.3745974,3.7348206 C50.5990532,3.51365263 50.9020896,3.38897436 51.2181865,3.38772962 C51.538551,3.38598418 51.8463566,3.51090782 52.0737946,3.7348206 C52.2982504,3.95898233 52.4242842,4.2624372 52.4242842,4.57862671 C52.4242842,4.89481622 52.2982504,5.19825194 52.0737946,5.42243282 L40.1433566,17.2710817 C39.9151345,17.4957413 39.7868382,17.801692 39.7868382,18.1208242 C39.7868382,18.4399565 39.9151345,18.7459391 40.1433566,18.9705668 C40.3690657,19.1934838 40.6746153,19.3186536 40.9929874,19.3186536 C41.3113595,19.3186536 41.6168898,19.1934838 41.8426181,18.9705668 L53.7730561,7.12191793 C53.9992665,6.89526034 54.3073292,6.76784364 54.6286643,6.76784364 C54.9499994,6.76784364 55.2580942,6.89526034 55.4842725,7.12191793 C55.7087282,7.34607966 55.8347621,7.64953453 55.8347621,7.96572404 C55.8347621,8.28191355 55.7087282,8.58534927 55.4842725,8.80953015 L43.5776157,20.6345609 C43.3493935,20.8592205 43.2210973,21.1651712 43.2210973,21.4843034 C43.2210973,21.8034356 43.3493935,22.1094183 43.5776157,22.334046 C43.8033248,22.556963 44.1088743,22.6821328 44.4272464,22.6821328 C44.7456185,22.6821328 45.0511488,22.556963 45.2768772,22.334046 L57.2073152,10.4853971 C57.4335256,10.2587395 57.7415882,10.1313228 58.0629234,10.1313228 C58.3842585,10.1313228 58.6923533,10.2587395 58.9185315,10.4853971 C59.1429873,10.7095588 59.2690211,11.0130137 59.2690211,11.3292032 C59.2690211,11.6453927 59.1429873,11.9488285 58.9185315,12.1730093 L43.5771015,27.4328843 C42.4470457,28.5546824 40.9147666,29.1850315 39.3169929,29.1850315 C37.7192192,29.1850315 36.1869401,28.5546824 35.0568843,27.4328843 L35.0320104,27.4328843 Z" id="Path" fill-opacity="0.45"></path>
                    </g>
                </g>
            </g>
        </g>
    </g>
</svg>