<?xml version="1.0" encoding="UTF-8"?>
<svg width="290px" height="58px" viewBox="0 0 290 58" version="1.1" xmlns="http://www.w3.org/2000/svg" xmlns:xlink="http://www.w3.org/1999/xlink">
    <title>logo/acadia-white</title>
    <g id="logo/acadia-white" stroke="none" stroke-width="1" fill="none" fill-rule="evenodd">
        <path d="M272.248609,30.6574559 L279.800613,30.6574559 L276.024851,20.8530215 L272.248609,30.6574559 Z M273.830568,15.4306796 L278.218174,15.4306796 L288,40.5693204 L283.647933,40.5693204 L281.346553,34.6079097 L270.70219,34.6079097 L268.400329,40.5693204 L264.049223,40.5693204 L273.830568,15.4306796 Z M243.548114,40.5693204 L247.862721,40.5693204 L247.862721,15.4306796 L243.548114,15.4306796 L243.548114,40.5693204 Z M221.968353,28 C221.968353,23.4030473 218.875514,19.5250129 213.985081,19.5250129 L210.100782,19.5250129 L210.100782,36.4749871 L213.985081,36.4749871 C218.875514,36.4749871 221.968353,32.5614624 221.968353,28 Z M226.355479,28 C226.355479,35.253929 221.248932,40.5693204 213.913043,40.5693204 L205.785694,40.5693204 L205.785694,15.4306796 L213.913043,15.4306796 C221.248932,15.4306796 226.355479,20.746071 226.355479,28 Z M172.639482,30.6574559 L180.191966,30.6574559 L176.415724,20.8530215 L172.639482,30.6574559 Z M174.22144,15.4306796 L178.609046,15.4306796 L188.390872,40.5693204 L184.039285,40.5693204 L181.737425,34.6079097 L171.093062,34.6079097 L168.791682,40.5693204 L164.440575,40.5693204 L174.22144,15.4306796 Z M146.182255,33.889471 L149.059461,36.7267764 C149.059461,36.7267764 145.750987,41 139.385692,41 C132.121841,41 126.619084,35.4337785 126.619084,28 C126.619084,20.5662215 132.121841,15 139.385692,15 C145.427295,15 148.70023,18.9499742 148.70023,18.9499742 L145.786526,21.7872796 C145.786526,21.7872796 143.521165,19.021914 139.385692,19.021914 C134.423221,19.021914 131.00669,23.1517376 131.00669,28 C131.00669,32.8482624 134.423221,36.978086 139.385692,36.978086 C143.808837,36.978086 146.182255,33.889471 146.182255,33.889471 Z M95.1993869,30.6574559 L102.751391,30.6574559 L98.9756289,20.8530215 L95.1993869,30.6574559 Z M96.7813456,15.4306796 L101.168952,15.4306796 L110.950777,40.5693204 L106.59871,40.5693204 L104.29733,34.6079097 L93.6529671,34.6079097 L91.3511067,40.5693204 L87,40.5693204 L96.7813456,15.4306796 L96.7813456,15.4306796 Z" id="Fill-1" fill="#FFFFFF"></path>
        <path d="M2.76017053,29 C2.76017053,22.8227829 4.91128259,17.1410466 8.4966291,12.6534477 C12.9406953,7.76908078 19.3485079,4.7032337 26.4727189,4.7032337 C39.8911729,4.7032337 50.7694074,15.5812885 50.7694074,29 C50.7694074,42.4182323 39.8911729,53.2962871 26.4727189,53.2962871 C19.3480287,53.2962871 12.9397369,50.2299608 8.49567071,45.3451148 C4.9108034,40.8575158 2.76017053,35.1767379 2.76017053,29 Z M29.0004792,0 C13.0096996,0 0,13.0094846 0,29 C0,44.9900362 13.0096996,58 29.0004792,58 C44.9907796,58 58,44.9900362 58,29 C58,13.0094846 44.9907796,0 29.0004792,0 L29.0004792,0 Z" id="Fill-2" fill="#FFFFFF"></path>
        <path d="M287.70913,16.9030068 L287.923305,16.9030068 C288.172148,16.9030068 288.373976,16.8181377 288.373976,16.6125121 C288.373976,16.4306499 288.243381,16.3094083 287.958447,16.3094083 C287.839725,16.3094083 287.756619,16.3215325 287.70913,16.3336566 L287.70913,16.9030068 Z M287.697258,18.0305529 L287.246587,18.0305529 L287.246587,16.042677 C287.424671,16.0063046 287.673513,15.9820563 287.994064,15.9820563 C288.361629,15.9820563 288.528315,16.042677 288.670782,16.1275461 C288.777158,16.2124151 288.860264,16.3700291 288.860264,16.5640155 C288.860264,16.7822502 288.694527,16.9519884 288.457082,17.0242483 L288.457082,17.0489816 C288.647038,17.1212415 288.753888,17.2667313 288.813249,17.5334627 C288.872611,17.8365664 288.908227,17.957808 288.955242,18.0305529 L288.468954,18.0305529 C288.409593,17.957808 288.373976,17.7759457 288.314615,17.5455868 C288.278998,17.3273521 288.160275,17.2308438 287.910958,17.2308438 L287.697258,17.2308438 L287.697258,18.0305529 Z M286.498635,16.9883608 C286.498635,17.8729389 287.139262,18.5756547 288.017808,18.5756547 C288.872611,18.5756547 289.50184,17.8729389 289.50184,17 C289.50184,16.1154219 288.872611,15.400097 288.005936,15.400097 C287.139262,15.400097 286.498635,16.1154219 286.498635,16.9883608 Z M290,16.9883608 C290,18.1154219 289.133325,19 288.005936,19 C286.890419,19 286,18.1154219 286,16.9883608 C286,15.885063 286.890419,15 288.005936,15 C289.133325,15 290,15.885063 290,16.9883608 L290,16.9883608 Z" id="Fill-3" fill="#FFFFFF"></path>
    </g>
</svg>