<?xml version="1.0" encoding="UTF-8"?>
<svg width="208px" height="65px" viewBox="0 0 208 65" version="1.1" xmlns="http://www.w3.org/2000/svg" xmlns:xlink="http://www.w3.org/1999/xlink">
    <title>RettDialogue Logo@2x</title>
    <g id="0.0" stroke="none" stroke-width="1" fill="none" fill-rule="evenodd">
        <g id="0.3-Home---DESKTOP" transform="translate(-48, -36)">
            <g id="Group-90" transform="translate(0, 11)">
                <g id="RettDialogue-Logo" transform="translate(49, 26)">
                    <g id="Group" transform="translate(-0, 0)">
                        <path d="M79.538,0 L24.016,0 C10.7523294,2.43649675e-15 2.24937179e-13,10.7523294 2.27373675e-13,24.016 C2.28998007e-13,37.2796706 10.7523294,48.032 24.016,48.032 L64.741,48.032 L64.741,48.032 L148.459616,48.032 L171.821116,62.094 L171.821116,48.032 L181.929116,48.032 C195.192786,48.032 205.945116,37.2796706 205.945116,24.016 C205.945116,10.7523294 195.192786,7.4094787e-15 181.929116,1.0658141e-14 L79.538,0 L79.538,0 Z" id="Path" stroke="#8BC43F" stroke-width="2" fill="#FFFFFF"></path>
                        <rect id="Rectangle" fill="#8BC43F" x="0" y="0" width="76" height="48" rx="24"></rect>
                        <path d="M13.4965,15.3746 L17.065,15.3746 C18.102,15.3746 18.9505,15.6596 19.6115,16.2286 C20.272,16.7986 20.603,17.5401 20.603,18.4551 C20.603,19.0451 20.455,19.5736 20.1605,20.0411 C19.8655,20.5096 19.469,20.8751 18.971,21.1391 C18.4725,21.4041 17.9085,21.5356 17.2785,21.5356 L13.4965,21.5356 L13.4965,15.3746 Z M21.1215,24.4791 C22.3005,23.8996 23.2305,23.0866 23.9125,22.0391 C24.593,20.9916 24.934,19.7971 24.934,18.4551 C24.934,17.0936 24.6085,15.8986 23.958,14.8716 C23.307,13.8446 22.4025,13.0366 21.2435,12.4471 C20.0845,11.8571 18.7525,11.5621 17.248,11.5621 L9.318,11.5621 L9.318,32.9126 L13.4965,32.9126 L13.4965,25.3481 L16.6995,25.3481 L21.0605,32.9126 L25.788,32.9126 L20.8365,24.5976 C20.9305,24.5561 21.0295,24.5241 21.1215,24.4791 L21.1215,24.4791 Z" id="Fill-6" fill="#12284C"></path>
                        <path d="M33.90055,21.01715 C34.42905,20.81415 34.92705,20.71215 35.39505,20.71215 C35.86255,20.71215 36.34555,20.81415 36.84355,21.01715 C37.34155,21.22065 37.76355,21.54115 38.10955,21.97815 C38.39455,22.33865 38.55505,22.80515 38.60555,23.36565 L32.00355,23.36565 C32.05805,22.80515 32.23305,22.33865 32.54355,21.97815 C32.91955,21.54115 33.37155,21.22065 33.90055,21.01715 M41.93705,21.42865 C41.25555,20.07665 40.35105,19.04965 39.22305,18.34815 C38.09455,17.64715 36.85905,17.29615 35.51705,17.29615 C33.97155,17.29615 32.60405,17.63665 31.41455,18.31815 C30.22505,18.99965 29.28955,19.93965 28.60905,21.13915 C27.92755,22.33915 27.58705,23.72165 27.58705,25.28715 C27.58705,26.85315 27.91755,28.23615 28.57805,29.43515 C29.23855,30.63565 30.14905,31.57565 31.30805,32.25665 C32.46705,32.93765 33.79855,33.27865 35.30355,33.27865 C36.50305,33.27865 37.57055,33.11565 38.50605,32.79015 C39.44105,32.46565 40.24905,31.99265 40.93105,31.37215 C41.61155,30.75215 42.16605,30.01515 42.59305,29.16115 L38.99405,27.75815 C38.70905,28.32765 38.30255,28.79015 37.77405,29.14565 C37.24505,29.50165 36.56405,29.67965 35.73055,29.67965 C35.03905,29.67965 34.39305,29.53215 33.79405,29.23715 C33.19355,28.94265 32.70555,28.51565 32.32955,27.95615 C32.01605,27.49065 31.84155,26.95415 31.78905,26.35465 L42.95905,26.35465 C42.95905,24.42315 42.61855,22.78115 41.93705,21.42865" id="Fill-8" fill="#12284C"></path>
                        <path d="M52.8405,29.42025 C52.5965,29.51175 52.3725,29.55725 52.1695,29.55725 C51.6205,29.55725 51.2035,29.38925 50.919,29.05425 C50.634,28.71875 50.492,28.22575 50.492,27.57525 L50.492,21.07825 L54.3045,21.07825 L54.3045,17.66225 L50.492,17.66225 L50.492,12.90425 L46.466,12.90425 L46.466,17.66225 L43.9955,17.66225 L43.9955,21.07825 L46.466,21.07825 L46.466,28.45925 C46.466,30.00475 46.898,31.19475 47.7625,32.02825 C48.6265,32.86225 49.902,33.27875 51.59,33.27875 C52.1795,33.27875 52.7745,33.16075 53.374,32.92775 C53.974,32.69425 54.518,32.39375 55.006,32.02825 L53.603,29.00875 C53.3385,29.19125 53.0845,29.32825 52.8405,29.42025" id="Fill-10" fill="#12284C"></path>
                        <path d="M65.8637,29.0086 C65.5992,29.1911 65.3452,29.3286 65.1012,29.4201 C64.8572,29.5116 64.6332,29.5576 64.4302,29.5576 C63.8812,29.5576 63.4642,29.3896 63.1797,29.0541 C62.8947,28.7186 62.7527,28.2261 62.7527,27.5751 L62.7527,21.0781 L66.5652,21.0781 L66.5652,17.6621 L62.7527,17.6621 L62.7527,12.9046 L58.7267,12.9046 L58.7267,17.6621 L56.2562,17.6621 L56.2562,21.0781 L58.7267,21.0781 L58.7267,28.4591 C58.7267,30.0046 59.1587,31.1946 60.0232,32.0281 C60.8872,32.8621 62.1627,33.2786 63.8507,33.2786 C64.4402,33.2786 65.0352,33.1611 65.6347,32.9276 C66.2347,32.6941 66.7787,32.3941 67.2667,32.0281 L65.8637,29.0086 Z" id="Fill-12" fill="#12284C"></path>
                        <path d="M94.25725,25.31745 C93.88075,26.27345 93.35225,27.11245 92.67125,27.83445 C91.98975,28.55595 91.20225,29.11495 90.30775,29.51145 C89.41275,29.90795 88.44725,30.10645 87.41025,30.10645 L83.81125,30.10645 L83.81125,14.36845 L87.41025,14.36845 C88.44725,14.36845 89.41275,14.56645 90.30775,14.96295 C91.20225,15.35945 91.98975,15.91895 92.67125,16.64045 C93.35225,17.36245 93.88075,18.20145 94.25725,19.15695 C94.63375,20.11295 94.82125,21.13945 94.82125,22.23745 C94.82125,23.33495 94.63375,24.36245 94.25725,25.31745 M92.82425,12.91945 C91.24775,12.01495 89.44325,11.56195 87.41025,11.56195 L80.82225,11.56195 L80.82225,32.91245 L87.41025,32.91245 C89.44325,32.91245 91.24775,32.45495 92.82425,31.53995 C94.39925,30.62495 95.63475,29.36445 96.52925,27.75795 C97.42375,26.15145 97.87175,24.31095 97.87175,22.23745 C97.87175,20.14295 97.42375,18.29245 96.52925,16.68595 C95.63475,15.07995 94.39925,13.82445 92.82425,12.91945" id="Fill-14" fill="#9E3795"></path>
                        <path d="M102.8432,10.92145 C102.3747,10.92145 101.9687,11.08945 101.6232,11.42495 C101.2772,11.76045 101.1042,12.17195 101.1042,12.66045 C101.1042,13.12795 101.2772,13.53995 101.6232,13.89545 C101.9687,14.25145 102.3747,14.42945 102.8432,14.42945 C103.3312,14.42945 103.7427,14.25145 104.0782,13.89545 C104.4142,13.53995 104.5817,13.12795 104.5817,12.66045 C104.5817,12.17195 104.4142,11.76045 104.0782,11.42495 C103.7427,11.08945 103.3312,10.92145 102.8432,10.92145" id="Fill-16" fill="#9E3795"></path>
                        <polygon id="Fill-18" fill="#9E3795" points="101.379 32.9125 104.2765 32.9125 104.2765 17.6625 101.379 17.6625"></polygon>
                        <path d="M117.2387,28.7645 C116.8932,29.4155 116.4157,29.919 115.8057,30.2745 C115.1952,30.63 114.4737,30.808 113.6402,30.808 C112.6842,30.808 111.9367,30.6095 111.3977,30.213 C110.8592,29.8165 110.5897,29.263 110.5897,28.551 C110.5897,27.7785 110.8742,27.1735 111.4437,26.736 C112.0132,26.299 112.9992,26.08 114.4022,26.08 L117.7572,26.08 L117.7572,26.5375 C117.7572,27.372 117.5842,28.114 117.2387,28.7645 M117.7572,18.15 C116.8012,17.581 115.6022,17.296 114.1582,17.296 C113.1217,17.296 112.2162,17.4535 111.4437,17.769 C110.6707,18.0845 110.0102,18.5115 109.4612,19.05 C108.9127,19.589 108.4552,20.204 108.0887,20.895 L110.6507,21.871 C111.0372,21.1805 111.5197,20.6715 112.0997,20.3465 C112.6792,20.021 113.3652,19.858 114.1582,19.858 C115.0122,19.858 115.6987,20.052 116.2172,20.4375 C116.7357,20.8245 117.1217,21.3935 117.3757,22.1455 C117.5362,22.619 117.6397,23.174 117.6992,23.7925 L113.6092,23.7925 C111.7382,23.7925 110.2797,24.2045 109.2327,25.028 C108.1852,25.8515 107.6622,27.046 107.6622,28.612 C107.6622,30.076 108.1652,31.2195 109.1717,32.0435 C110.1782,32.8665 111.5857,33.2785 113.3957,33.2785 C115.2057,33.2785 116.5527,32.6735 117.4367,31.4635 C117.5637,31.2905 117.6787,31.1055 117.7872,30.9145 L117.8792,32.9125 L120.5632,32.9125 L120.5937,24.6165 C120.6137,23.0305 120.3852,21.699 119.9077,20.6205 C119.4297,19.543 118.7127,18.72 117.7572,18.15" id="Fill-20" fill="#9E3795"></path>
                        <polygon id="Fill-21" fill="#9E3795" points="124.254 32.9125 127.1515 32.9125 127.1515 11.562 124.254 11.562"></polygon>
                        <path d="M142.15715,28.0628 C141.75015,28.8558 141.19615,29.4813 140.49465,29.9388 C139.79315,30.3963 138.98465,30.6248 138.06965,30.6248 C137.13465,30.6248 136.30115,30.3963 135.56865,29.9388 C134.83665,29.4813 134.26765,28.8558 133.86065,28.0628 C133.45415,27.2698 133.25115,26.3448 133.25115,25.2873 C133.25115,24.2503 133.45415,23.3308 133.86065,22.5268 C134.26765,21.7238 134.82665,21.0933 135.53865,20.6358 C136.25015,20.1783 137.07365,19.9498 138.00915,19.9498 C138.92365,19.9498 139.74215,20.1783 140.46415,20.6358 C141.18615,21.0933 141.75015,21.7188 142.15715,22.5118 C142.56315,23.3048 142.76715,24.2298 142.76715,25.2873 C142.76715,26.3448 142.56315,27.2698 142.15715,28.0628 M142.00415,18.3178 C140.84565,17.6368 139.50315,17.2958 137.97865,17.2958 C136.49415,17.2958 135.17215,17.6368 134.01365,18.3178 C132.85465,18.9998 131.94965,19.9393 131.29865,21.1393 C130.64765,22.3388 130.32315,23.7218 130.32315,25.2873 C130.32315,26.8533 130.65315,28.2363 131.31415,29.4353 C131.97465,30.6358 132.88515,31.5753 134.04365,32.2568 C135.20315,32.9378 136.54465,33.2788 138.06965,33.2788 C139.55415,33.2788 140.87065,32.9378 142.02015,32.2568 C143.16815,31.5753 144.06765,30.6358 144.71915,29.4353 C145.36965,28.2363 145.69465,26.8533 145.69465,25.2873 C145.69465,23.7218 145.36965,22.3388 144.71915,21.1393 C144.06765,19.9393 143.16365,18.9998 142.00415,18.3178" id="Fill-22" fill="#9E3795"></path>
                        <path d="M159.35835,27.71225 C158.99285,28.49475 158.49385,29.11525 157.86435,29.57275 C157.23335,30.03025 156.49185,30.25925 155.63785,30.25925 C154.74285,30.25925 153.95435,30.03025 153.27385,29.57275 C152.59235,29.11525 152.05385,28.49475 151.65735,27.71225 C151.26085,26.92975 151.06235,26.02975 151.06235,25.01275 C151.06235,23.99625 151.25535,23.10175 151.64185,22.32875 C152.02785,21.55625 152.56185,20.95125 153.24335,20.51375 C153.92435,20.07675 154.71185,19.85825 155.60685,19.85825 C156.46085,19.85825 157.20835,20.07675 157.84835,20.51375 C158.48935,20.95125 158.99285,21.55625 159.35835,22.32875 C159.72435,23.10175 159.90785,23.99625 159.90785,25.01275 C159.90785,26.02975 159.72435,26.92975 159.35835,27.71225 L159.35835,27.71225 Z M159.96885,20.15525 C159.50185,19.38475 158.91785,18.75625 158.21485,18.27225 C157.26885,17.62175 156.16585,17.29575 154.90535,17.29575 C153.52235,17.29575 152.31785,17.62175 151.29135,18.27225 C150.26435,18.92275 149.46135,19.82775 148.88185,20.98675 C148.30235,22.14575 148.01285,23.50825 148.01285,25.07375 C148.01285,26.57875 148.30235,27.90575 148.88185,29.05425 C149.46135,30.20275 150.26435,31.09775 151.29135,31.73825 C152.31785,32.37875 153.52235,32.69925 154.90535,32.69925 C156.16585,32.69925 157.26885,32.38425 158.21485,31.75325 C158.91785,31.28475 159.50185,30.67175 159.96885,29.91625 L159.96885,31.44875 C159.96885,32.68875 159.75985,33.70525 159.34335,34.49825 C158.92635,35.29125 158.35185,35.87575 157.61985,36.25225 C156.88835,36.62825 156.05435,36.81625 155.11885,36.81625 C154.32635,36.81625 153.60385,36.74025 152.95335,36.58775 C152.30285,36.43525 151.73335,36.25225 151.24535,36.03875 C150.75735,35.82525 150.38085,35.63725 150.11735,35.47425 L149.01885,37.82325 C149.30385,38.00575 149.73035,38.21975 150.29985,38.46325 C150.86885,38.70725 151.57035,38.92575 152.40435,39.11875 C153.23785,39.31225 154.16285,39.40925 155.18035,39.40925 C156.68435,39.40925 158.01135,39.10375 159.16035,38.49375 C160.30835,37.88425 161.21385,36.98425 161.87485,35.79475 C162.53535,34.60525 162.86635,33.13625 162.86635,31.38775 L162.86635,17.66225 L159.96885,17.66225 L159.96885,20.15525 Z" id="Fill-23" fill="#9E3795"></path>
                        <path d="M177.07855,25.59235 C177.07855,27.17835 176.73255,28.40885 176.04155,29.28285 C175.35005,30.15735 174.38355,30.59435 173.14405,30.59435 C172.43205,30.57435 171.79155,30.42185 171.22255,30.13685 C170.65255,29.85235 170.21055,29.34385 169.89555,28.61235 C169.58005,27.87985 169.42255,26.83285 169.42255,25.47035 L169.42255,17.66235 L166.52555,17.66235 L166.52555,25.47035 L166.52555,26.23235 C166.52555,27.87985 166.76405,29.22185 167.24205,30.25885 C167.71955,31.29585 168.40155,32.05835 169.28555,32.54635 C170.17055,33.03435 171.20205,33.27885 172.38105,33.27885 C173.64205,33.27885 174.70955,32.97335 175.58405,32.36335 C176.19305,31.93835 176.69955,31.37435 177.11655,30.68785 L177.26105,32.91235 L179.94505,32.91235 L179.94505,17.66235 L177.07855,17.66235 L177.07855,25.59235 Z" id="Fill-24" fill="#9E3795"></path>
                        <path d="M186.9145,21.7491 C187.3515,21.1191 187.9105,20.6356 188.5915,20.3006 C189.273,19.9651 189.98,19.7971 190.712,19.7971 C191.464,19.7971 192.1455,19.9651 192.7555,20.3006 C193.365,20.6356 193.853,21.1241 194.219,21.7641 C194.5205,22.2916 194.6905,22.9101 194.744,23.6096 L186.287,23.6096 C186.35,22.8941 186.553,22.2701 186.9145,21.7491 M193.5025,29.9691 C192.821,30.4471 191.972,30.6861 190.9555,30.6861 C190.0205,30.6861 189.187,30.4781 188.4545,30.0611 C187.7225,29.6446 187.143,29.0391 186.7165,28.2461 C186.3515,27.5691 186.1525,26.7816 186.099,25.8971 L197.8485,25.8971 C197.8485,24.1486 197.5485,22.6291 196.949,21.3376 C196.349,20.0466 195.5205,19.0501 194.4635,18.3481 C193.4055,17.6471 192.1755,17.2961 190.773,17.2961 C189.288,17.2961 187.9715,17.6366 186.823,18.3181 C185.674,18.9996 184.7745,19.9396 184.1235,21.1391 C183.4725,22.3391 183.148,23.7216 183.148,25.2871 C183.148,26.8531 183.4725,28.2361 184.1235,29.4356 C184.7745,30.6356 185.669,31.5756 186.8075,32.2566 C187.946,32.9376 189.258,33.2786 190.742,33.2786 C191.8405,33.2786 192.8315,33.1156 193.716,32.7906 C194.6005,32.4656 195.3675,32.0026 196.0185,31.4026 C196.6695,30.8031 197.1975,30.1061 197.605,29.3131 L195.104,28.1546 C194.717,28.8866 194.1835,29.4916 193.5025,29.9691" id="Fill-25" fill="#9E3795"></path>
                        <path d="M79.538,0 L24.016,0 C10.7523294,2.43649675e-15 -2.43649675e-15,10.7523294 0,24.016 C1.62433117e-15,37.2796706 10.7523294,48.032 24.016,48.032 L64.741,48.032 L64.741,48.032 L148.459616,48.032 L171.821116,62.094 L171.821116,48.032 L181.929116,48.032 C195.192786,48.032 205.945116,37.2796706 205.945116,24.016 C205.945116,10.7523294 195.192786,7.4094787e-15 181.929116,1.0658141e-14 L79.538,0 L79.538,0 Z" id="Path" stroke="#8BC43F" stroke-width="2"></path>
                    </g>
                </g>
            </g>
        </g>
    </g>
</svg>